/* XPM */ 
static const char * bookmark16_xpm[] = {
"16 16 89 1",
" 	c None",
"!	c black",
"#	c #0066CC",
"$	c #69C3FF",
"%	c #66C2FF",
"&	c #62C0FF",
"'	c #5DBEFF",
"(	c #57BCFF",
")	c #52BAFF",
"*	c #4BB7FF",
"+	c #44B4FF",
",	c #3EB2FF",
"-	c #68C3FF",
".	c #64C1FF",
"0	c #60C0FF",
"1	c #5BBEFF",
"2	c #56BBFF",
"3	c #50B9FF",
"4	c #49B6FF",
"5	c #43B4FF",
"6	c #3CB1FF",
"7	c #35AEFF",
"8	c #2DABFF",
"9	c #67C2FF",
":	c #5FBFFF",
";	c #5ABDFF",
"<	c #54BBFF",
"=	c #4EB8FF",
">	c #47B5FF",
"?	c #41B3FF",
"@	c #3AB0FF",
"A	c #33ADFF",
"B	c #2BAAFF",
"C	c #25A8FF",
"D	c #62C1FF",
"E	c #58BCFF",
"F	c #4CB7FF",
"G	c #46B5FF",
"H	c #3FB2FF",
"I	c #38AFFF",
"J	c #31ACFF",
"K	c #2AA9FF",
"L	c #23A7FF",
"M	c #1CA4FF",
"N	c #5CBEFF",
"O	c #56BCFF",
"P	c #51B9FF",
"Q	c #4AB7FF",
"R	c #3DB1FF",
"S	c #36AEFF",
"T	c #2FACFF",
"U	c #28A9FF",
"V	c #21A6FF",
"W	c #1AA4FF",
"X	c #14A1FF",
"Y	c #55BBFF",
"Z	c #4FB8FF",
"[	c #48B6FF",
"]	c #33AEFF",
"^	c #2CABFF",
"_	c #1FA5FF",
"`	c #18A3FF",
"a	c #13A0FF",
"b	c #0D9EFF",
"c	c #4DB8FF",
"d	c #3FB3FF",
"e	c #38B0FF",
"f	c #31ADFF",
"g	c #2AAAFF",
"h	c #1DA5FF",
"i	c #17A2FF",
"j	c #11A0FF",
"k	c #0C9EFF",
"l	c #079BFF",
"m	c #36AFFF",
"n	c #22A7FF",
"o	c #1BA4FF",
"p	c #15A1FF",
"q	c #0F9FFF",
"r	c #0A9DFF",
"s	c #059BFF",
"t	c #029AFF",
"u	c #26A8FF",
"v	c #20A6FF",
"w	c #19A3FF",
"x	c #13A1FF",
"y	c #0E9EFF",
"z	c #099CFF",
"{	c #0199FF",
"                ",
"                ",
"   ##########   ",
"  #$$%&'()*+,#  ",
" #$-.012345678# ",
" #9.:;<=>?@ABC# ",
" #D'E)FGHIJKLM# ",
" #NOPQ+RSTUVWX# ",
" #NOPQ+RSTUVWX# ",
" #YZ[?@]^C_`ab# ",
" #cGdefgLhijkl# ",
" #+,mTUnopqrst# ",
"  #78uvwxyzs{#  ",
"   ##########   ",
"                ",
"                "};