/* XPM */ 
static const char * breakpoint16_xpm[] = {
"16 16 57 1",
" 	c None",
"!	c black",
"#	c #800000",
"$	c #EF5E5E",
"%	c #EF5959",
"&	c #EE5454",
"'	c #EE4E4E",
"(	c #EF6262",
")	c #EF5D5D",
"*	c #EE5353",
"+	c #ED4D4D",
",	c #ED4747",
"-	c #EC4141",
".	c #EC3A3A",
"0	c #EF5858",
"1	c #EC4040",
"2	c #EB3333",
"3	c #EF5757",
"4	c #EE5252",
"5	c #ED4C4C",
"6	c #ED4646",
"7	c #EC3939",
"8	c #EA2C2C",
"9	c #EA2626",
":	c #ED4B4B",
";	c #ED4545",
"<	c #EC3F3F",
"=	c #EB3838",
">	c #EB3232",
"?	c #EA2525",
"@	c #E91F1F",
"A	c #EE5151",
"B	c #EC3E3E",
"C	c #EB3131",
"D	c #EA2B2B",
"E	c #EA2424",
"F	c #E91E1E",
"G	c #E81818",
"H	c #ED4A4A",
"I	c #ED4444",
"J	c #EC3D3D",
"K	c #EB3737",
"L	c #EA2A2A",
"M	c #E81717",
"N	c #E81212",
"O	c #EB3636",
"P	c #EB3030",
"Q	c #EA2929",
"R	c #E92323",
"S	c #E91D1D",
"T	c #EB2F2F",
"U	c #E92222",
"V	c #E91C1C",
"W	c #E81616",
"X	c #E81111",
"Y	c #E70C0C",
"Z	c #E81010",
"                ",
"                ",
"      ####      ",
"    ##$%&'##    ",
"   #()%*+,-.#   ",
"   #)0*+,1.2#   ",
"  #)345617289#  ",
"  #34:;<=>8?@#  ",
"  #A:;B=CDEFG#  ",
"  #HIJKCLEFMN#  ",
"   #JOPQRSMN#   ",
"   #OTQUVWXY#   ",
"    ##UVWZ##    ",
"      ####      ",
"                ",
"                "};