/* XPM */ 
static const char * breakhand16_xpm[] = {
"16 16 24 1",
" 	c None",
"!	c black",
"#	c #810303",
"$	c #EF6262",
"%	c #ED4444",
"&	c #E60303",
"'	c #686868",
"(	c #606060",
")	c #BEBEBE",
"*	c #D25F5F",
"+	c #C04D4D",
",	c #F6F6F6",
"-	c #E7E7E7",
".	c #AF7070",
"0	c white",
"1	c #9A9A9A",
"2	c #666666",
"3	c #8E8E8E",
"4	c #F9F9F9",
"5	c #FEFEFE",
"6	c #707070",
"7	c #B4B4B4",
"8	c #CFCFCF",
"9	c #D5D5D5",
"  ####          ",
" #$%&&#'()      ",
" #%&*+#(,('-    ",
" #&&((.(0(0(    ",
" #&&(0((0(0('1  ",
"  ##(0'(0(0(0(  ",
"    (0-(0(0(0(  ",
" 1( )(0(020(0(  ",
" (3( (0000000(  ",
"  (4((0000000(  ",
"   (00(00005)6  ",
"    (0000000(   ",
"    7(000000(   ",
"     210000)(   ",
"      (8009(    ",
"      ((((((    "};