/* XPM */ 
static const char * break16_xpm[] = {
"16 16 17 1",
" 	c None",
"!	c black",
"#	c #0066CC",
"$	c #60AFFF",
"%	c #44A1FF",
"&	c #59ABFF",
"'	c #3B9DFF",
"(	c #51A7FF",
")	c #3198FF",
"*	c #48A3FF",
"+	c #2893FF",
",	c #3F9FFF",
"-	c #1F8FFF",
".	c #369AFF",
"0	c #178BFF",
"1	c #2D96FF",
"2	c #0F87FF",
"                ",
"                ",
"                ",
"    ### ###     ",
"    #$# #%#     ",
"    #&# #'#     ",
"    #(# #)#     ",
"    #*# #+#     ",
"    #,# #-#     ",
"    #.# #0#     ",
"    #1# #2#     ",
"    ### ###     ",
"                ",
"                ",
"                ",
"                "};