/* XPM */ 
static const unsigned char * breakpoint216_xpm[] = {
"16 16 50 1",
" 	c None",
"!	c black",
"#	c #5D6778",
"$	c #DDDFE4",
"%	c #E8EAED",
"&	c #69737C",
"'	c #87939E",
"(	c #6D0000",
")	c #800000",
"*	c #EFF1F3",
"+	c #C93737",
",	c #EC3A3A",
"-	c #C93131",
".	c #EB3333",
"0	c white",
"1	c #C82B2B",
"2	c #EA2C2C",
"3	c #EA2626",
"4	c #C72525",
"5	c #EA2525",
"6	c #E91F1F",
"7	c #CB4545",
"8	c #CA4040",
"9	c #CA3B3B",
":	c #C93535",
";	c #C83030",
"<	c #C82A2A",
"=	c #EA2424",
">	c #E91E1E",
"?	c #E81818",
"@	c #ED4A4A",
"A	c #ED4444",
"B	c #EC3D3D",
"C	c #EB3737",
"D	c #EB3131",
"E	c #EA2A2A",
"F	c #E81717",
"G	c #E81212",
"H	c #EB3636",
"I	c #EB3030",
"J	c #EA2929",
"K	c #E92323",
"L	c #E91D1D",
"M	c #EB2F2F",
"N	c #E92222",
"O	c #E91C1C",
"P	c #E81616",
"Q	c #E81111",
"R	c #E70C0C",
"S	c #E81010",
"                ",
" #########      ",
" #$$$$$$$#      ",
" #%&%'''%#()    ",
" #*******#+,)   ",
" #*'''''*#-.)   ",
" #0000000#123)  ",
" #########456)  ",
"  (789:;<4=>?)  ",
"  )@ABCDE=>FG)  ",
"   )BHIJKLFG)   ",
"   )HMJNOPQR)   ",
"    ))NOPS))    ",
"      ))))      ",
"                ",
"                "};