/* XPM */ 
static const char * breakpoint_disabled16_xpm[] = {
"16 16 32 1",
" 	c None",
"!	c black",
"#	c #A2A2A2",
"$	c #C9C9C9",
"%	c #C7C7C7",
"&	c #C5C5C5",
"'	c #C3C3C3",
"(	c #CACACA",
")	c #C1C1C1",
"*	c #BFBFBF",
"+	c #BDBDBD",
",	c #C8C8C8",
"-	c #BABABA",
".	c #C6C6C6",
"0	c #C0C0C0",
"1	c #BEBEBE",
"2	c #BCBCBC",
"3	c #B8B8B8",
"4	c #B6B6B6",
"5	c #B5B5B5",
"6	c #B3B3B3",
"7	c #C4C4C4",
"8	c #C2C2C2",
"9	c #B9B9B9",
":	c #B7B7B7",
";	c #B1B1B1",
"<	c #AFAFAF",
"=	c #BBBBBB",
">	c #B2B2B2",
"?	c #B0B0B0",
"@	c #ADADAD",
"A	c #AEAEAE",
"                ",
"                ",
"      ####      ",
"    ##$%&'##    ",
"   #($%&')*+#   ",
"   #,%&')*+-#   ",
"  #,.&'012-34#  ",
"  #.&'012-356#  ",
"  #780129:56;#  ",
"  #80129:56;<#  ",
"   #129:56;<#   ",
"   #=9:5>?<@#   ",
"    ##5>?A##    ",
"      ####      ",
"                ",
"                "};