/* XPM */ 
static const char * breaktoggle16_xpm[] = {
"16 16 20 1",
" 	c None",
"!	c black",
"#	c #868686",
"$	c #BEBEBE",
"%	c #B5B5B5",
"&	c #A2A2A2",
"'	c #686868",
"(	c #606060",
")	c #9A9A9A",
"*	c #F6F6F6",
"+	c white",
",	c #E7E7E7",
"-	c #666666",
".	c #8E8E8E",
"0	c #F9F9F9",
"1	c #FEFEFE",
"2	c #707070",
"3	c #B4B4B4",
"4	c #CFCFCF",
"5	c #D5D5D5",
"  ####          ",
" #$%&&#'($      ",
" #%&$)#(*('     ",
" #&&((#(+(+(    ",
" #&&(+((+(+(')  ",
"  ##(+'(+(+(+(  ",
"    (+,(+(+(+(  ",
" )( $(+(+-+(+(  ",
" (.( (+++++++(  ",
"  (0((+++++++(  ",
"   (++(++++1$2  ",
"    (+++++++(   ",
"    3(++++++(   ",
"     -)++++$(   ",
"      (4++5(    ",
"      ((((((    "};