/* XPM */ 
static char * breakwin16_xpm[] = {
"16 16 5 1",
" 	c None",
"!	c black",
"#	c #000080",
"$	c #808080",
"%	c white",
"                ",
"############### ",
"############### ",
"$%%%%%%%%%%%%%! ",
"$%%%%%%!!%%%%%! ",
"$%%%%%!!%!%%%%! ",
"$%%%%!%!%!!%%%! ",
"$%%%%!%!%!%!%%! ",
"$%%%%!%!%!%!%%! ",
"$%!!%!%!%!%!%%! ",
"$%!%!!%!%!%!%%! ",
"$%%!%!%%%%%!%%! ",
"!!!$!%%%%%%!$!! ",
"    !%%%%%%!    ",
"     !%%%%!     ",
"     ######     "};