/* XPM */ 
static const char * breakdisableall16_xpm[] = {
"16 16 20 1",
" 	c None",
"!	c black",
"#	c #868686",
"$	c #686868",
"%	c #606060",
"&	c #BEBEBE",
"'	c #B5B5B5",
"(	c #A2A2A2",
")	c #F6F6F6",
"*	c #E7E7E7",
"+	c white",
",	c #9A9A9A",
"-	c #666666",
".	c #8E8E8E",
"0	c #F9F9F9",
"1	c #FEFEFE",
"2	c #707070",
"3	c #B4B4B4",
"4	c #D5D5D5",
"5	c #CFCFCF",
" ####    $%     ",
"#&'(($%& %)%$   ",
"#'(((%)%$*+%+%  ",
"#(%%(%+%+%+%+%$,",
"#(%+%%+%+%$,+%+%",
" #%+$%+%+%+%+%+%",
"  %+*%+%+%+%+%+%",
"% &%+%+-+%+%+++%",
".% %+++++++%+++%",
"%0%%+++++++%+1&2",
" %++%++++1&2++% ",
"  %+++++++%+++% ",
"  3%++++++%++&% ",
"   -,++++&%+4%  ",
"    %5++4%%%%%  ",
"    %%%%%%      "};