/* XPM */ 
static const char * breakgoto16_xpm[] = {
"16 16 26 1",
" 	c None",
"!	c black",
"#	c #384F9D",
"$	c #5E76C6",
"%	c #8B9CD6",
"&	c #CE1F1F",
"'	c #5D6778",
"(	c #D2D6DC",
")	c #D3D6DC",
"*	c #D6D9DF",
"+	c #87939E",
",	c #D5D8DE",
"-	c #DDDFE4",
".	c #E2E4E8",
"0	c #68A1F5",
"1	c #E8EAED",
"2	c #0362EE",
"3	c #EFF1F3",
"4	c #EFF0F2",
"5	c #0048B2",
"6	c #C5C6C6",
"7	c #F6F7F8",
"8	c #FBFBFC",
"9	c #CCCCCC",
":	c #4C4CFF",
";	c white",
"                ",
"                ",
"  ##############",
"  #$%$$$$$$$$&$#",
"  ##############",
"  '()))))()))))'",
"  '***++++++++,'",
"  '------------'",
"  '.0..++++.++.'",
"  '120111111111'",
"00002203++++++4'",
"555522567777777'",
"  '8259:::8::88'",
"  ';59;;;;;;;;;'",
"  ''''''''''''''",
"                "};