/* XPM */ 
static const char * breakclearall16_xpm[] = {
"16 16 87 1",
" 	c None",
"!	c black",
"#	c #686868",
"$	c #606060",
"%	c #BEBEBE",
"&	c #F6F6F6",
"'	c #E7E7E7",
"(	c #F82D11",
")	c #F2290D",
"*	c #AB837D",
"+	c white",
",	c #F61F01",
"-	c #EA2307",
".	c #E1B9B4",
"0	c #6A5C5A",
"1	c #FC6551",
"2	c #AD3F30",
"3	c #9A9A9A",
"4	c #FEE3DF",
"5	c #DA2B13",
"6	c #F31F01",
"7	c #E72307",
"8	c #7B544E",
"9	c #835A55",
":	c #E8361E",
";	c #FB4931",
"<	c #695C5A",
"=	c #F54931",
">	c #F01F01",
"?	c #E52307",
"@	c #F8AB9F",
"A	c #8F4C42",
"B	c #D32F19",
"C	c #FFF1EF",
"D	c #FEF1EF",
"E	c #ED6A58",
"F	c #EE1F01",
"G	c #EB1F01",
"H	c #94483C",
"I	c #F78171",
"J	c #F97361",
"K	c #B93725",
"L	c #BA3725",
"M	c #8E8E8E",
"N	c #FAD5CF",
"O	c #E71E01",
"P	c #E91F01",
"Q	c #F4AA9F",
"R	c #F9F9F9",
"S	c #F3AAA0",
"T	c #E32C12",
"U	c #E31E01",
"V	c #F07361",
"W	c #E61E01",
"X	c #F4AAA0",
"Y	c #FEFEFE",
"Z	c #707070",
"[	c #EA8071",
"]	c #DC1E02",
"^	c #DE1E02",
"_	c #F7B8AF",
"`	c #E42C11",
"a	c #E11E02",
"b	c #995147",
"c	c #FCF1EF",
"d	c #B72E1A",
"e	c #D71D02",
"f	c #D91D02",
"g	c #F2AAA0",
"h	c #D82208",
"i	c #E97361",
"j	c #DC4832",
"k	c #D41D02",
"l	c #CD2108",
"m	c #F0AAA0",
"n	c #78544E",
"o	c #E34832",
"p	c #CF5A49",
"q	c #D72B12",
"r	c #7B5853",
"s	c #FDF1EF",
"t	c #D9402A",
"u	c #E67261",
"v	c #CFCFCF",
"w	c #D5D5D5",
"x	c #685C5A",
"y	c #B2321F",
"         #$%    ",
"     #$% $&$#'  ",
" ()* $&$#'+$+$  ",
" (,-.$+$+$+012#3",
" 45678+$+$9:;0+$",
"  <=>?@$+A(BC$+$",
"  $DEFGHI6J$+$+$",
"$ %$+KGGFL+$+++$",
"M$+$+NOPPQ+$+++$",
"$R$$STUVWUX$+Y%Z",
" $+[]^X+_`ab++$ ",
" cdefg+++Nh^i+$ ",
" jklm+++++no]p$ ",
" jqr3++++%$stfu ",
"    $v++w$$$xye ",
"    $$$$$$      "};