/* XPM */ 
static const char * callstack_window16_xpm[] = {
"16 16 26 1",
" 	c None",
"!	c black",
"#	c #384F9D",
"$	c #5E76C6",
"%	c #8B9CD6",
"&	c #CE1F1F",
"'	c #5D6778",
"(	c #D2D6DC",
")	c #D3D6DC",
"*	c #D6D9DF",
"+	c #D5D8DE",
",	c #DDDFE4",
"-	c #87939E",
".	c #DBDEE3",
"0	c #E2E4E8",
"1	c #E1E3E7",
"2	c #E8EAED",
"3	c #E8E9EC",
"4	c #EFF1F3",
"5	c #EFF0F2",
"6	c #EEF0F2",
"7	c #F6F7F8",
"8	c #F6F6F7",
"9	c #FBFBFC",
":	c #FBFBFB",
";	c white",
"                ",
" ############## ",
" #$%$$$$$$$$&$# ",
" ############## ",
" '()))))()))))' ",
" '*+++++++*+++' ",
" ',--!!.,....,' ",
" '001100000000' ",
" '2--!-!!22232' ",
" '454555465455' ",
" '7----!-!!888' ",
" '99999:9999:9' ",
" ';------!-!!;' ",
" ';;;;;;;;;;;;' ",
" '''''''''''''' ",
"                "};