/* XPM */ 
static const char * checked16_xpm[] = {
"16 16 8 1",
" 	c None",
"!	c black",
"#	c #999999",
"$	c #7F7F7F",
"%	c #404040",
"&	c #4C4C4C",
"'	c #E5E5E5",
"(	c #BFBFBF",
"                ",
"                ",
"                ",
"            !#  ",
"          $!#   ",
"         %!     ",
"        &!      ",
"   ''  (!$      ",
"   $!( !$       ",
"   '$!$!(       ",
"     #!$        ",
"      #(        ",
"                ",
"                ",
"                ",
"                "};