/* XPM */ 
static const char * class16_xpm[] = {
"16 16 18 1",
" 	c None",
"!	c black",
"#	c #6B6B04",
"$	c #F6F601",
"%	c white",
"&	c #530053",
"'	c #FDFD74",
"(	c #959500",
")	c #BA00BA",
"*	c #F188F1",
"+	c #5D6778",
",	c #D42CD4",
"-	c #800080",
".	c #0F3B6A",
"0	c #72A9E7",
"1	c #96BFED",
"2	c #6498D2",
"3	c #1E64B0",
"  ##            ",
" #$$##          ",
"#%%$$%#    &&   ",
"#''%%(#   &))&& ",
"#'''((#  &**))*&",
" ##'(#+++&,,**-&",
"   ##   +&,,,--&",
"        + &&,-& ",
"        +   &&  ",
"        +  ..   ",
"        + .00.. ",
"        +.11001.",
"        +.22113.",
"        +.22233.",
"          ..23. ",
"            ..  "};