#define close_mono_width 14
#define close_mono_height 14
#define close_mono_x_hot 0
#define close_mono_y_hot 0
static char close_mono_bits[] = {
  0xFF,0xFF,0xFF,0xFF,0xFF,0xFF,0xE7,0xF9,0xCF,0xFC,0x1F,0xFE,
  0x3F,0xFF,0x1F,0xFE,0xCF,0xFC,0xE7,0xF9,0xFF,0xFF,0xFF,0xFF,
  0xFF,0xFF,0xFF,0xFF};