/* XPM */ 
static const char * copy_clipboard16_xpm[] = {
"16 16 16 1",
" 	c None",
"!	c #5D6778",
"#	c black",
"$	c #DEE3EE",
"%	c #BFC3CC",
"&	c #E8ECF3",
"'	c #E1E6F0",
"(	c #E4E8F1",
")	c #E4E9F1",
"*	c #ECEFF5",
"+	c #F2F4F8",
",	c #F5F6F9",
"-	c #F4F5F9",
".	c #F9FAFC",
"0	c #FCFCFD",
"1	c #F4F6F9",
"!!!!!!!         ",
"!$$$%%!!        ",
"!$$$$%!&!       ",
"!''''%!!!!      ",
"!()((!!!!!!!    ",
"!&!!!!$$$%%!!   ",
"!****!$$$$%!&!  ",
"!+!!!!''''%!!!! ",
"!,-,,!()(((%%%! ",
"!.!!!!&!!!!!!&! ",
"!0000!********! ",
"!!!!!!+!!!!!!+! ",
"     !,-,,1,,,! ",
"     !.!!!!!..! ",
"     !00000000! ",
"     !!!!!!!!!! "};