/* XPM */ 
static const char * currentline16_xpm[] = {
"16 16 51 1",
" 	c None",
"!	c black",
"#	c #E5CB00",
"$	c #E3CA00",
"%	c #E1C800",
"&	c #FFF10B",
"'	c #DFC600",
"(	c #E5CC00",
")	c #FFF107",
"*	c #FFF105",
"+	c #DBC200",
",	c #FFF20E",
"-	c #FFF20D",
".	c #FFF20B",
"0	c #FFF10A",
"1	c #FFF108",
"2	c #FFF106",
"3	c #FFF004",
"4	c #FFEF02",
"5	c #FFEF00",
"6	c #D7BF00",
"7	c #FFF20C",
"8	c #FFEF03",
"9	c #FFEF01",
":	c #FDED00",
";	c #FBEB00",
"<	c #FAE900",
"=	c #D3BC00",
">	c #FFF109",
"?	c #FCEC00",
"@	c #F8E700",
"A	c #F7E600",
"B	c #D4AF0A",
"C	c #DEC500",
"D	c #F9E800",
"E	c #F6E500",
"F	c #D4AF0C",
"G	c #D4B117",
"H	c #D4B116",
"I	c #D4B114",
"J	c #D4B013",
"K	c #D4B011",
"L	c #D4B00F",
"M	c #F4E300",
"N	c #D4AD0C",
"O	c #D4AF0D",
"P	c #F2E100",
"Q	c #D4AD0E",
"R	c #D4AC19",
"S	c #D4AD0F",
"T	c #D4AA22",
"                ",
"                ",
"        #       ",
"        $$      ",
"        %&'     ",
"  (##$%%')*+    ",
"  #,-.0123456   ",
"  $7&12*89:;<=  ",
"  %>)*395?<@AB  ",
"  C2395?;DAEF   ",
"  GHIJKKLEMN    ",
"        OPQ     ",
"        RS      ",
"        T       ",
"                ",
"                "};