/* XPM */ 
static const char * cut_clipboard16_xpm[] = {
"16 16 33 1",
" 	c None",
"!	c black",
"#	c #A7AFB2",
"$	c #5E6A80",
"%	c #606D83",
"&	c #637087",
"'	c #8E98A6",
"(	c #67748C",
")	c #C7CCCE",
"*	c #0A2127",
"+	c #00111D",
",	c #6A7790",
"-	c #697985",
".	c #5D6B74",
"0	c #000509",
"1	c #0E1822",
"2	c #6D7B94",
"3	c #343432",
"4	c #061928",
"5	c #020001",
"6	c #213556",
"7	c #0C2027",
"8	c #071B24",
"9	c #061019",
":	c #0A1420",
";	c #070C0F",
"<	c #040F11",
"=	c #000004",
">	c #00010A",
"?	c #011017",
"@	c #0A0F12",
"A	c #010101",
"B	c #030002",
"  #             ",
"   #            ",
"   ##           ",
"$   ##          ",
" %%  ##         ",
"  &&&'##        ",
"   ((()##    *+ ",
"     ,,-.+++0  1",
"      223+  4  5",
"       6+    789",
"        :;      ",
"        < =     ",
"        > ?@    ",
"        +  A    ",
"         B ?    ",
"          ++    "};