/* XPM */ 
static const char * datablock_object16_xpm[] = {
"16 16 16 1",
" 	c None",
"!	c black",
"#	c #0F3B6A",
"$	c #72A9E7",
"%	c #96BFED",
"&	c #6598D2",
"'	c #6498D2",
"(	c #1E64B0",
")	c #8EB9E9",
"*	c #1F65B0",
"+	c #5784B7",
",	c #528BC9",
"-	c #2166B1",
".	c #1A5799",
"0	c #5D6778",
"1	c #DEDEDE",
"                ",
"    ###         ",
"   #$$$##       ",
"  #$$$$$$##     ",
" #%%$$$$$$%#    ",
" #&'%%$$$%(#    ",
" #''''%%)*(#    ",
" #++''',-(.#    ",
"  ##++',(.#0000 ",
"    ##++.#11110 ",
"      ###1$1$10 ",
"        01$1$10 ",
"        01(1(10 ",
"        0111110 ",
"        0000000 ",
"                "};