/* XPM */ 
static const char * datablock16_xpm[] = {
"16 16 14 1",
" 	c None",
"!	c #5D6778",
"#	c black",
"$	c #DEDEDE",
"%	c #72A9E7",
"&	c #530053",
"'	c #BA00BA",
"(	c #1E64B0",
")	c #F188F1",
"*	c #D42CD4",
"+	c #800080",
",	c #0F3B6A",
"-	c #96BFED",
".	c #6498D2",
"!!!!!!!         ",
"!$$$$$!         ",
"!$%$%$!    &&   ",
"!$%$%$!   &''&& ",
"!$($($!  &))'')&",
"!$$$$$!!!&**))+&",
"!!!!!!! !&***++&",
"        ! &&*+& ",
"        !   &&  ",
"        !  ,,   ",
"        ! ,%%,, ",
"        !,--%%-,",
"        !,..--(,",
"        !,...((,",
"          ,,.(, ",
"            ,,  "};