/* XPM */ 
static const char * debugconnect16_xpm[] = {
"16 16 33 1",
" 	c None",
"!	c black",
"#	c #757575",
"$	c #384F9D",
"%	c #C7C7C7",
"&	c #5E76C6",
"'	c #8B9CD6",
"(	c #525252",
")	c #A0A0A0",
"*	c #5D6778",
"+	c #D2D6DC",
",	c #D3D6DC",
"-	c #2A2A2A",
".	c #D6D9DF",
"0	c #D5D8DE",
"1	c #E6CB5A",
"2	c #DDDFE4",
"3	c #4F565D",
"4	c #49505E",
"5	c #E2E4E8",
"6	c #E1E3E7",
"7	c #F2CB29",
"8	c #B0B2B5",
"9	c #E8EAED",
":	c #3E4349",
";	c #EFF1F3",
"<	c #EFF0F2",
"=	c #EEF0F2",
">	c #BBBBBD",
"?	c #F6F7F8",
"@	c #FBFBFC",
"A	c #FBFBFB",
"B	c white",
"              #!",
" $$$$$$$$$!!$#!%",
" $&'&&&&&!((!!$ ",
" $$$$$$$!))(()! ",
" *+,,,,,!--))!! ",
" *.00000!1--!!! ",
" *23333311!1!!4 ",
" *5566557811!8* ",
" *933333:37::9* ",
" *;<;<<<;=>;<<* ",
" *?3333333333?* ",
" *@@@@@A@@@@A@* ",
" *B3333333333B* ",
" *BBBBBBBBBBBB* ",
" ************** ",
"                "};