/* XPM */ 
static const char * deletedso16_xpm[] = {
"16 16 127 2",
"  	c None",
"! 	c black",
"# 	c #999FAA",
"$ 	c #E32206",
"% 	c #E22206",
"& 	c #DAB4B2",
"' 	c #808895",
"( 	c #616B7B",
") 	c #5D6778",
"* 	c #F3AFA5",
"+ 	c #9BA1AC",
", 	c #E31E02",
"- 	c #F6CFCC",
". 	c #E5E9F2",
"0 	c #DFE4EE",
"1 	c #DEE3EE",
"2 	c #677080",
"3 	c #FFF1EF",
"4 	c #E43016",
"5 	c #E43A22",
"6 	c #767E8D",
"7 	c #F4DADA",
"8 	c #F84931",
"9 	c #E21E02",
": 	c #E12206",
"; 	c #DFBAB7",
"< 	c #888F9B",
"= 	c #656E7E",
"> 	c #687282",
"? 	c #9BA1AB",
"@ 	c #F29386",
"A 	c #E3290E",
"B 	c #60697A",
"C 	c #E5EAF2",
"D 	c #F3E8E9",
"E 	c #F54931",
"F 	c #E11E02",
"G 	c #E02206",
"H 	c #F6A99E",
"I 	c #DEE0E4",
"J 	c #E3E5E9",
"K 	c #F18272",
"L 	c #E42C12",
"M 	c #E4E8F1",
"N 	c #E8ECF3",
"O 	c #B5ADB2",
"P 	c #F67361",
"Q 	c #E01E02",
"R 	c #EE7867",
"S 	c #E3371E",
"T 	c #E3331A",
"U 	c #BCC0C7",
"V 	c #E6E7EE",
"W 	c #E29398",
"X 	c #6C7585",
"Y 	c #F1F4F8",
"Z 	c #F47361",
"[ 	c #E2331A",
"] 	c #C2C6CC",
"^ 	c #6F7887",
"_ 	c #E6DEE3",
"` 	c #E76062",
"a 	c #6E7786",
"b 	c #F4F6FA",
"c 	c #E34C36",
"d 	c #DF1E02",
"e 	c #F4AA9F",
"f 	c #DADCE2",
"g 	c #C2C6CE",
"h 	c #F2F4F8",
"i 	c #E57374",
"j 	c #B7BCC3",
"k 	c #E1412A",
"l 	c #DE2206",
"m 	c #DE1E02",
"n 	c #F07361",
"o 	c #F2A99F",
"p 	c #EFF2F7",
"q 	c #5E6879",
"r 	c #F2DBDD",
"s 	c #F3BEBF",
"t 	c #E0371E",
"u 	c #DC1E02",
"v 	c #DD1E02",
"w 	c #F0A39A",
"x 	c #F7F8FB",
"y 	c #F4B2AA",
"z 	c #F2AA9F",
"{ 	c #99A0AA",
"| 	c #737B8A",
"} 	c #F9D4D3",
"~ 	c #DC2C12",
" !	c #DB1E02",
"!!	c #F0A196",
"#!	c #B79394",
"$!	c #EAB8BA",
"%!	c #EEC4C7",
"&!	c #F7B7B3",
"'!	c #E97361",
"(!	c #989EA9",
")!	c #DC290E",
"*!	c #DA1E02",
"+!	c #DB2206",
",!	c #EFA79D",
"-!	c #EB9395",
".!	c #92696B",
"0!	c #B46264",
"1!	c #FB6668",
"2!	c #F08485",
"3!	c #F7B3AE",
"4!	c #DE290E",
"5!	c #E77261",
"6!	c #979DA8",
"7!	c #D7B6B5",
"8!	c #F7C3C3",
"9!	c #CC6B6C",
":!	c #AE8C8D",
";!	c #EFE1E3",
"<!	c #F9FAFC",
"=!	c #FAFBFD",
">!	c #FBEFEE",
"?!	c #E67261",
"@!	c #78818F",
"A!	c #FCFCFD",
"B!	c #C4BCC0",
"C!	c #DE3016",
"D!	c #727B89",
"                                ",
"                                ",
"# $ % & ' ( ) ) ) )       *     ",
"+ $ , % - . 0 1 1 2   3 4 5     ",
"6 7 8 9 : ; < = > ? @ A A       ",
"B C D E F G H I J K $ L         ",
") M N O P F Q R S 9 T U         ",
") V W X Y Z Q Q F [ ] ^ )       ",
") _ ` a b c d d d e f g )       ",
") h i j k l m n d m o p =       ",
"q r s t u v w x y l v z {       ",
"| } ~  ! !!!#!$!%!&!l v '!      ",
"(!)!*!+!,!-!.!0!1!2!3!4!u 5!    ",
"6!)!+!7!8!9!:!;!<!<!=!>!4! !?!  ",
"      @!A!A!A!A!A!A!A!A!B!C! !  ",
"      ) ) ) ) ) ) ) ) q D!      "};