/* XPM */ 
static const char * delete16_xpm[] = {
"16 16 60 1",
" 	c None",
"!	c black",
"#	c #E32206",
"$	c #FDD5CF",
"%	c #F3AFA5",
"&	c #E31E02",
"'	c #E22206",
"(	c #FFF1EF",
")	c #E43016",
"*	c #E43A22",
"+	c #FEE3DF",
",	c #F84931",
"-	c #E21E02",
".	c #E12206",
"0	c #FCD5CF",
"1	c #F29486",
"2	c #E4290E",
"3	c #FEF1EF",
"4	c #F54931",
"5	c #E11E02",
"6	c #F8AB9F",
"7	c #F18271",
"8	c #E42C12",
"9	c #F67361",
":	c #E01E02",
";	c #ED7967",
"<	c #E3371E",
"=	c #E3331A",
">	c #F47361",
"?	c #E44C35",
"@	c #DF1E02",
"A	c #F4AA9F",
"B	c #E2412A",
"C	c #DE2206",
"D	c #DE1E02",
"E	c #F07361",
"F	c #F4AAA0",
"G	c #E0371E",
"H	c #DC1E02",
"I	c #DD1E02",
"J	c #F7B8AF",
"K	c #F3AAA0",
"L	c #FCF1EF",
"M	c #DD2C12",
"N	c #DB1E02",
"O	c #F2AAA0",
"P	c #FAD5CF",
"Q	c #E97361",
"R	c #DC290E",
"S	c #DA1E02",
"T	c #DB2106",
"U	c #F0AAA0",
"V	c #F9D5CF",
"W	c #DE290E",
"X	c #E77261",
"Y	c #F7D4CF",
"Z	c #FDF1EF",
"[	c #DD290E",
"]	c #E67261",
"^	c #DE3016",
"                ",
"                ",
" ##$         %  ",
" #&'$      ()*  ",
" +,-.0    122   ",
"  345.6  7#8    ",
"   395:;<-=     ",
"     >::5=      ",
"     ?@@@A      ",
"    BCDE@DF     ",
"   GHIF JCIK    ",
" LMNNO   PCIQ   ",
" RSTU     VWHX  ",
" RTY       Z[N] ",
"            Z^N ",
"                "};