/* XPM */ 
static const char * errorprev16_xpm[] = {
"16 16 26 1",
" 	c None",
"!	c black",
"#	c #384F9D",
"$	c #5E76C6",
"%	c #8B9CD6",
"&	c #CE1F1F",
"'	c #5D6778",
"(	c #D2D6DC",
")	c #D3D6DC",
"*	c #D6D9DF",
"+	c #D5D8DE",
",	c #DDDFE4",
"-	c #800000",
".	c #DBDEE3",
"0	c #D90000",
"1	c #E1E3E7",
"2	c #E2E4E8",
"3	c #87939E",
"4	c #E8EAED",
"5	c #EEF0F2",
"6	c #EFF0F2",
"7	c #EFF1F3",
"8	c #F6F7F8",
"9	c #FBFBFC",
":	c #FBFBFB",
";	c white",
"                ",
"  ##############",
"  #$%$$$$$$$$&$#",
"  ##############",
"  '()))))()))))'",
"  '*+++++++*+++'",
"  ',-.00.00000,'",
"  '--1122222222'",
"  -0-3333333334'",
" -00------56766'",
"-00000000-33338'",
"-00000000-999:9'",
" -00------3333;'",
"  -0-;;;;;;;;;;'",
"  '--'''''''''''",
"    -           "};