/* XPM */ 
static const char * errornext16_xpm[] = {
"16 16 24 1",
" 	c None",
"!	c black",
"#	c #384F9D",
"$	c #5E76C6",
"%	c #8B9CD6",
"&	c #CE1F1F",
"'	c #5D6778",
"(	c #D2D6DC",
")	c #D3D6DC",
"*	c #D6D9DF",
"+	c #D5D8DE",
",	c #DDDFE4",
"-	c #D90000",
".	c #DBDEE3",
"0	c #800000",
"1	c #E2E4E8",
"2	c #E1E3E7",
"3	c #E8EAED",
"4	c #87939E",
"5	c #EFF1F3",
"6	c #EFF0F2",
"7	c #F6F7F8",
"8	c #FBFBFC",
"9	c white",
"                ",
"##############  ",
"#$%$$$$$$$$&$#  ",
"##############  ",
"'()))))()))))'  ",
"'*+++++++*+++'  ",
"',-----,--.0,'  ",
"'112211111100'  ",
"'34444444440-0  ",
"'56566000000--0 ",
"'744440--------0",
"'888880--------0",
"'94444000000--0 ",
"'99999999990-0  ",
"'''''''''''00'  ",
"           0    "};