/* XPM */ 
static char * exported16_xpm[] = {
"5 5 4 1",
" 	c None",
"!	c #1E64B0",
"#	c #808080",
"$	c #EBEBEB",
"!!!!!",
"#$$$#",
"#$$$#",
"#$$$#",
"#####"};