/* XPM */ 
static const char * filter_nonscript16_xpm[] = {
"16 16 41 1",
" 	c None",
"!	c black",
"#	c #5D6778",
"$	c #DEE3EE",
"%	c #A4A4A4",
"&	c #D0D5DF",
"'	c #080809",
"(	c #202020",
")	c #E1E6F0",
"*	c #75787D",
"+	c #0B0B0B",
",	c #050505",
"-	c #E8ECF3",
".	c #292E35",
"0	c #020202",
"1	c #0F0F0F",
"2	c #636363",
"3	c #ECEFF5",
"4	c #384F9D",
"5	c #16203F",
"6	c #060911",
"7	c #0A0A0A",
"8	c #F0F0F0",
"9	c #6A6A6A",
":	c white",
";	c #343434",
"<	c #353C48",
"=	c #010202",
">	c #262626",
"?	c #666666",
"@	c #3A3A3A",
"A	c #616161",
"B	c #23262D",
"C	c #404040",
"D	c #282828",
"E	c #DEDEDE",
"F	c #0A0B0D",
"G	c #101010",
"H	c #0C0C0C",
"I	c #424242",
"J	c #040404",
"  ############# ",
"  #$$$$$$$$$$$#%",
"  #$$$$$$$$$$&'(",
"  #)))))))))*+, ",
"  #-######!.012 ",
"  #3#444456!789 ",
"  #:#444!!!79:9 ",
"  #:#::;!!!:9:9 ",
"  #:#:<=!>?:9:9 ",
"  #:#@!!A:::9:9 ",
"  #:B!!C???:9:9 ",
"  #D!!EEEEEE9:9 ",
"  F!!99999999:9 ",
" G!!::::::::::9 ",
"H!0I99999999999 ",
"HJ              "};