/* XPM */ 
static const char * filter16_xpm[] = {
"16 16 56 1",
" 	c None",
"!	c black",
"#	c #A4A4A4",
"$	c #A6781E",
"%	c #141414",
"&	c #202020",
"'	c #F6ECC1",
"(	c #858585",
")	c #0C0C0C",
"*	c #F3E5A8",
"+	c #6C654A",
",	c #020201",
"-	c #101010",
".	c #EDD78D",
"0	c #42300C",
"1	c #120D03",
"2	c #090909",
"3	c #626262",
"4	c #EAC975",
"5	c #FBF7E5",
"6	c #171717",
"7	c #F0F0F0",
"8	c #E5C26D",
"9	c #323027",
":	c #DBDBDB",
";	c #A2751D",
"<	c #E2B661",
"=	c #F1E19D",
">	c #938A60",
"?	c #040303",
"@	c #4B4B4B",
"A	c #C7C7C7",
"B	c #5F5F5F",
"C	c #9B701C",
"D	c #D7B75F",
"E	c #EDD984",
"F	c #36311E",
"G	c #464646",
"H	c #B8B8B8",
"I	c #5B5B5B",
"J	c #946B1B",
"K	c #BC9339",
"L	c #585131",
"M	c #737373",
"N	c #575757",
"O	c #8C6619",
"P	c #865D0A",
"Q	c #252215",
"R	c #525252",
"S	c #866118",
"T	c #694C13",
"U	c #0F0B03",
"V	c #4F4F4F",
"W	c #080601",
"X	c #4C4C4C",
"Y	c #040404",
"                ",
"               #",
"  $$$$        %&",
" $''''$$$$$$()) ",
"$*********!+,-  ",
"$..$$$$$$01!23  ",
"$4$55555!!!6773 ",
"$8$''''9!!!:::3 ",
";<;===>?!@AAAAB ",
"CDCEEF!!GHHHHHI ",
"JKJEL!!MHHHHHHN ",
"OPOQ!!HHHHHHHHR ",
"STU!!HHHHHHHHHV ",
" W!!XXXXXXXXXX  ",
")!Y             ",
")Y              "};