/* XPM */ 
static const char * filter16_xpm[] = {
"16 16 73 1",
" 	c None",
"!	c black",
"#	c #5D6778",
"$	c #DEE3EE",
"%	c #BFC3CC",
"&	c #E0E4EF",
"'	c #DFE4EE",
"(	c #E0E5EE",
")	c #F20F0F",
"*	c #C0B0B6",
"+	c #141414",
",	c #E1E6F0",
"-	c #E2E6F0",
".	c #7D2324",
"0	c #F4F8FB",
"1	c #858585",
"2	c #0C0C0C",
"3	c #E4E8F1",
"4	c #A10001",
"5	c #A00000",
"6	c #740000",
"7	c #626776",
"8	c #2C2F32",
"9	c #020202",
":	c #101010",
";	c #E7EAF3",
"<	c #E7EBF2",
"=	c #E80000",
">	c #A10000",
"?	c #4C4E52",
"@	c #151616",
"A	c #0A0A0A",
"B	c #EC0103",
"C	c #E50000",
"D	c #9A0000",
"E	c #B30000",
"F	c #161616",
"G	c #6A6A6A",
"H	c #630709",
"I	c #EDF0F6",
"J	c #2E0202",
"K	c #F1F1F1",
"L	c #F0F2F7",
"M	c #E15253",
"N	c #B90000",
"O	c #939497",
"P	c #262626",
"Q	c #F3F3F3",
"R	c #F4F5F9",
"S	c #FC3D3F",
"T	c #180202",
"U	c #313131",
"V	c #767676",
"W	c #7A7A7A",
"X	c #787878",
"Y	c #EE7A7C",
"Z	c #F00000",
"[	c #290404",
"]	c #4F4F4F",
"^	c #757575",
"_	c #737373",
"`	c #717171",
"a	c #696969",
"b	c #200404",
"c	c #FAFAFA",
"d	c #F0F0F0",
"e	c #160303",
"f	c #FCFCFC",
"g	c #060707",
"h	c #FEFEFE",
"i	c #FDFDFD",
"j	c #424242",
"k	c #040404",
"  ########      ",
"  #$$$$%%##     ",
"  #&'())*#'#   +",
"  #,--)).#0'#122",
"  #3334567#!89: ",
"  #;<==>56?@!A  ",
"  #))BCDE!!!FG  ",
"  #)))HIJ!!!KG  ",
"  #LMN6O9!PQQG  ",
"  #RS6T!!UVWXG  ",
"  #YZ[!!]^_`aG  ",
"  #=b!!cccccdG  ",
"  #e!!fffffffG  ",
"  g!!hiiihiihG  ",
" 2!9jGGGGGGGGG  ",
" 2k             "};