/* XPM */ 
static const char * findinfiles16_xpm[] = {
"16 16 66 1",
" 	c None",
"!	c black",
"#	c #5D6778",
"$	c #C1C7C0",
"%	c #D4D8D1",
"&	c #E3E6E0",
"'	c #E4E8E1",
"(	c #B8BBB2",
")	c #D2D6D0",
"*	c #E2E5DF",
"+	c #EBEFE9",
",	c #EEF5ED",
"-	c #F0F5ED",
".	c #A2A396",
"0	c #C7CAC2",
"1	c white",
"2	c #E5EAE3",
"3	c #F0F6EF",
"4	c #F2F9F2",
"5	c #F7FCF8",
"6	c #D6E0DB",
"7	c #A6781E",
"8	c #A7A596",
"9	c #DFE2DB",
":	c #E9EEE8",
";	c #F3F9F2",
"<	c #F3E5A8",
"=	c #F7FDF8",
">	c #FEFFFE",
"?	c #EDD78D",
"@	c #95A297",
"A	c #C4C5BE",
"B	c #DFE3DC",
"C	c #EDF1E9",
"D	c #F3F8F2",
"E	c #F8FCF7",
"F	c #FCFEFD",
"G	c #CBD7D8",
"H	c #AAB2A8",
"I	c #D3D5CE",
"J	c #EAEEE6",
"K	c #F4F9F3",
"L	c #F5FAF4",
"M	c #FBF7E5",
"N	c #A2751D",
"O	c #E2B661",
"P	c #A7A89F",
"Q	c #E4E3DD",
"R	c #EBE9E2",
"S	c #E9EBE4",
"T	c #758C88",
"U	c #AFBCBA",
"V	c #F6ECC1",
"W	c #9B701C",
"X	c #D7B75F",
"Y	c #F1E19D",
"Z	c #6B6B6B",
"[	c #946B1B",
"]	c #BC9339",
"^	c #EDD984",
"_	c #8C6619",
"`	c #865D0A",
"a	c #866118",
"b	c #694C13",
"c	c #BCA67A",
"d	c #825E17",
"   ####         ",
"  #$%&'#        ",
" #()*+,-#       ",
"#.0123456#77    ",
"#819:;456#<<7   ",
"#819:;=>6#??7   ",
"#@ABCDEFG#777777",
"7#HIJKL1#MMMMMM7",
"NO#PQRS#TUVVVVVN",
"WXW####YTTZYYYW ",
"[][^^^^^^!!Z^^[ ",
"_`_^^^^^^^!!Z^_ ",
"aba^^^^^^^^!!c  ",
" ddddddddddd!!Z ",
"             !!Z",
"              !!"};