/* XPM */ 
static const char * findreplace16_xpm[] = {
"16 16 6 1",
" 	c None",
"!	c black",
"#	c #003576",
"$	c #848B98",
"%	c #399CF8",
"&	c #0B75D6",
"                ",
"                ",
"                ",
"  !!     #  $$$ ",
" !  !    ## $  $",
" !  ! ####%#$  $",
" !  ! #%%%%&#  $",
" !!!! #&&&&&&#$ ",
" !  ! #&&&&&#  $",
" !  ! ####&#$  $",
" !  !    ## $  $",
" !  !    #  $$$ ",
"                ",
"                ",
"                ",
"                "};