/* XPM */ 
static const char * folder_open16_xpm[] = {
"16 16 22 1",
" 	c None",
"!	c black",
"#	c #A6781E",
"$	c #F6ECC1",
"%	c #F3E5A8",
"&	c #EDD78D",
"'	c #EAC975",
"(	c #E5C26D",
")	c #FBF7E5",
"*	c #A2751D",
"+	c #E2B661",
",	c #9B701C",
"-	c #D7B75F",
".	c #F1E19D",
"0	c #946B1B",
"1	c #BC9339",
"2	c #EDD984",
"3	c #8C6619",
"4	c #865D0A",
"5	c #866118",
"6	c #694C13",
"7	c #825E17",
"                ",
"                ",
"  ####          ",
" #$$$$######    ",
"#%%%%%%%%%%%#   ",
"#&&&&&&&&&&&#   ",
"#''#############",
"#((#)))))))))))#",
"*++*$$$$$$$$$$$*",
",-,..........., ",
"010222222222220 ",
"343222222222223 ",
"56522222222223  ",
" 7777777777777  ",
"                ",
"                "};