/* XPM */ 
static const char * folder_closed16_xpm[] = {
"16 16 22 1",
" 	c None",
"!	c black",
"#	c #A6781E",
"$	c #F6ECC1",
"%	c #F3E5A8",
"&	c #EDD78D",
"'	c #EAC975",
"(	c #FBF7E5",
")	c #E5C26D",
"*	c #A2751D",
"+	c #E2B661",
",	c #F1E19D",
"-	c #9B701C",
".	c #D7B75F",
"0	c #EDD984",
"1	c #946B1B",
"2	c #BC9339",
"3	c #8C6619",
"4	c #865D0A",
"5	c #866118",
"6	c #694C13",
"7	c #825E17",
"                ",
"                ",
"  ####          ",
" #$$$$######    ",
"#%%%%%%%%%%%#   ",
"#&&###########  ",
"#'#(((((((((((# ",
"#)#$$$$$$$$$$$# ",
"*+*,,,,,,,,,,,* ",
"-.-00000000000- ",
"121000000000001 ",
"343000000000003 ",
"565000000000005 ",
" 7777777777777  ",
"                ",
"                "};