/* XPM */ 
static const char * functions16_xpm[] = {
"16 16 22 1",
" 	c None",
"!	c black",
"#	c #5D6778",
"$	c #5E6879",
"%	c #656F7F",
"&	c #666F7F",
"'	c #D8DBDF",
"(	c #530053",
")	c #D9DBDF",
"*	c #BA00BA",
"+	c #7E8694",
",	c #DFE1E4",
"-	c #E66DE6",
".	c #9DA3AD",
"0	c #E6E8EA",
"1	c #DB5BDB",
"2	c #800080",
"3	c #BFC3CA",
"4	c #EFF0F2",
"5	c #D04ED0",
"6	c #B21AB2",
"7	c #DEE0E3",
"                ",
" ###$ # #$ #### ",
"                ",
" %% &'((()'&&%& ",
"     (***((     ",
" ++,(******((,+ ",
"   (--******-(  ",
" .0(11--***-2(. ",
"   (1111---22(  ",
" 34(551116222(3 ",
"    ((551622(   ",
" 77 7 ((562( 77 ",
"        (((     ",
"                ",
"                ",
"                "};