/* XPM */ 
static const char * globalvar16_xpm[] = {
"16 16 17 1",
" 	c None",
"!	c black",
"#	c #0F3B6A",
"$	c #72A9E7",
"%	c #97AABF",
"&	c #96BFED",
"'	c #6598D2",
"(	c #6498D2",
")	c #1E64B0",
"*	c #BCD3EC",
"+	c #8EB9E9",
",	c #1F65B0",
"-	c #B7CAE0",
".	c #5784B7",
"0	c #528BC9",
"1	c #2166B1",
"2	c #1A5799",
"                ",
"  !!            ",
"  !!            ",
" !!!!   ###     ",
"!!  !! #$$$##   ",
"!!  !!%$$$$$$## ",
"!!   %&&$$$$$$&#",
" !!!!%'(&&$$$&)#",
"    !!*(((&&+,)#",
"    !!-.(((01)2#",
"!!  !!%#..(0)2# ",
" !!!!   ##..2#  ",
"  !!      ###   ",
"  !!            ",
"                ",
"                "};