/* XPM */ 
static const char * keyword16_xpm[] = {
"16 16 4 1",
" 	c None",
"!	c black",
"#	c #66CC33",
"$	c #5D6778",
"                ",
"                ",
"                ",
" #######        ",
" #!!!!!# $$$$$$ ",
" #######        ",
"                ",
"   $$$$$$$$$$$  ",
"                ",
"                ",
" $$$$$ $$$$$$   ",
"                ",
"                ",
"                ",
"                ",
"                "};