#define left_mono_width 14
#define left_mono_height 14
#define left_mono_x_hot 0
#define left_mono_y_hot 0
static char left_mono_bits[] = {
  0xFF,0xFF,0xFF,0xFF,0xFF,0xFE,0x7F,0xFE,0x3F,0xFE,0x1F,0xFE,
  0x0F,0xFE,0x1F,0xFE,0x3F,0xFE,0x7F,0xFE,0xFF,0xFE,0xFF,0xFF,
  0xFF,0xFF,0xFF,0xFF};