/* XPM */ 
static const char * namespace16_xpm[] = {
"16 16 3 1",
" 	c None",
"!	c black",
"#	c #191C20",
"                ",
"                ",
"    ##    ##    ",
"   ##      ##   ",
"   ##      ##   ",
"   ##      ##   ",
"   ##      ##   ",
"   ##      ##   ",
"  ##        ##  ",
"   ##      ##   ",
"   ##      ##   ",
"   ##      ##   ",
"   ##      ##   ",
"   ##      ##   ",
"    ##    ##    ",
"                "};