/* XPM */ 
static const char * new_project16_xpm[] = {
"16 16 65 1",
" 	c None",
"!	c black",
"#	c #3F4397",
"$	c #384F9D",
"%	c #5D6778",
"&	c #5E76C6",
"'	c #CE1F1F",
"(	c #DEE3EE",
")	c #D3D6DC",
"*	c #E1E6F0",
"+	c #BFC3CC",
",	c #D6D9DF",
"-	c #D5D8DE",
".	c #E4E8F1",
"0	c #E4E9F1",
"1	c #CC2D30",
"2	c #BBB4BB",
"3	c #E8ECF3",
"4	c #87939E",
"5	c #DDDFE4",
"6	c #E5E4EA",
"7	c #DE5659",
"8	c #CC676C",
"9	c #B20000",
":	c #893F43",
";	c #E2E4E8",
"<	c #E2D2D7",
"=	c #E40000",
">	c #CC8C91",
"?	c #A30000",
"@	c #870000",
"A	c #BEC1CA",
"B	c #E8EAED",
"C	c #F2F4F8",
"D	c #D70000",
"E	c #A70000",
"F	c #950000",
"G	c #873D3E",
"H	c #EFF0F2",
"I	c #EDC1C2",
"J	c #D50000",
"K	c #810000",
"L	c #ECEFF5",
"M	c #D89196",
"N	c #890000",
"O	c #F6F7F8",
"P	c #F17979",
"Q	c #A90000",
"R	c #590000",
"S	c #E18587",
"T	c #F30000",
"U	c #E03D3E",
"V	c #FBFBFB",
"W	c #FBFBFC",
"X	c #FCFCFD",
"Y	c #480000",
"Z	c #880000",
"[	c #FF0000",
"]	c #E60000",
"^	c #F00000",
"_	c #D00303",
"`	c white",
"a	c #7C4443",
"b	c #E8D0D1",
"c	c #F9FAFC",
"                ",
" #$$$$$$$$$$$$$$",
"%%%%%%%%%%&&&'&$",
"%((((((((%$$$$$$",
"%((%%%%%%%)))))%",
"%**%(((++%%,---%",
"%.0%(((12%3%445%",
"%67%**89:%%%%;;%",
"%<=%.0>?@A++%4B%",
"%CD%67=EFG33%HH%",
"%IJ%<=KLMNLL%4O%",
"%PQ%CDRSSTUS%VW%",
"%XX%IJYZ[]^_%4`%",
"%%%%PQabcccc%``%",
"   %XXXXXXXX%%%%",
"   %%%%%%%%%%   "};