/* XPM */ 
static const char * new_document16_xpm[] = {
"16 16 70 1",
" 	c None",
"!	c black",
"#	c #5D6778",
"$	c #E2E4E9",
"%	c #BDBFC4",
"&	c #DEE3EE",
"'	c #DFE4EE",
"(	c #BFC3CC",
")	c #E0E4EF",
"*	c #E0E5EE",
"+	c #F20F0F",
",	c #C0B0B6",
"-	c #F4F8FB",
".	c #E1E6F0",
"0	c #E2E6F0",
"1	c #7D2324",
"2	c #626776",
"3	c #E4E8F1",
"4	c #A10001",
"5	c #A00000",
"6	c #740000",
"7	c #B6B3B8",
"8	c #B9BBC0",
"9	c #B8BABF",
":	c #B7B9BE",
";	c #E7EAF3",
"<	c #E7EBF2",
"=	c #E80000",
">	c #A10000",
"?	c #EC0103",
"@	c #E50000",
"A	c #9A0000",
"B	c #B30000",
"C	c #880000",
"D	c #D8D0D6",
"E	c #EAEDF4",
"F	c #630709",
"G	c #EDF0F6",
"H	c #A90000",
"I	c #AE888C",
"J	c #EDEFF6",
"K	c #F0F2F7",
"L	c #E15253",
"M	c #B90000",
"N	c #F10909",
"O	c #A52324",
"P	c #F0F2F6",
"Q	c #F4F5F9",
"R	c #FC3D3F",
"S	c #ED0000",
"T	c #F10303",
"U	c #EF0204",
"V	c #EE7A7C",
"W	c #F00000",
"X	c #7A0000",
"Y	c #FF0000",
"Z	c #EB0000",
"[	c #E60000",
"]	c #E20000",
"^	c #D30000",
"_	c #F9FAFC",
"`	c #F9FAFB",
"a	c #F9F9FC",
"b	c #F3EEEF",
"c	c #430000",
"d	c #FBFCFD",
"e	c #FEFEFE",
"f	c #FDFEFE",
"g	c #FDFDFE",
"h	c #FDFEFF",
"  ########      ",
"  #$$$$$%##     ",
"  #&&&&'(#'#    ",
"  #)'*++,#-'#   ",
"  #.00++12####  ",
"  #333456789:#  ",
"  #;<==>56(((#  ",
"  #++?@ABCDEE#  ",
"  #+++FG=HIGJ#  ",
"  #KLM6K=NOKP#  ",
"  #QR666++STU#  ",
"  #VWX66YZ[]^#  ",
"  #==6_`a___b#  ",
"  #=^cddddddd#  ",
"  #eeeffghffe#  ",
"  ############  "};