/* XPM */ 
static const char * newbreak16_xpm[] = {
"16 16 52 1",
" 	c None",
"!	c #384F9D",
"#	c #5E76C6",
"$	c #8B9CD6",
"%	c #6279C7",
"&	c #6A80CA",
"'	c #768ACE",
"(	c #7A8ED0",
")	c black",
"*	c #3D539F",
"+	c #5064A9",
",	c #7383BA",
"-	c #9AA5CD",
".	c #A8B2D4",
"0	c #5D6778",
"1	c #D2D6DC",
"2	c #D5D9DF",
"3	c #DFE2E6",
"4	c #F0F1F3",
"5	c #800000",
"6	c #D6D9DF",
"7	c #99A3AC",
"8	c #EAECEF",
"9	c #EF6262",
":	c #ED4545",
";	c #E60000",
"<	c #686868",
"=	c #606060",
">	c #BEBEBE",
"?	c #DDDFE4",
"@	c #E3E5E9",
"A	c #D84141",
"B	c #F6F6F6",
"C	c #E2E4E8",
"D	c white",
"E	c #E8EAED",
"F	c #EAECEE",
"G	c #EFF0F2",
"H	c #F7F8F9",
"I	c #9A9A9A",
"J	c #EFF1F3",
"K	c #8A96A0",
"L	c #F1F3F4",
"M	c #AAB3BB",
"N	c #C2C8CE",
"O	c #E7E7E7",
"P	c #666666",
"Q	c #8E8E8E",
"R	c #F9F9F9",
"S	c #FEFEFE",
"T	c #707070",
"U	c #B4B4B4",
"!#$%&'('&%#!    ",
"!!*+,-.-,+*!    ",
"012345554320    ",
"067859:;5<=>    ",
"0?@45:A;5=B=<   ",
"0C745;==5=D=D=  ",
"0EFGH5=D==D=D=<I",
"0JKLMN=D<=D=D=D=",
"0DDDDD=DO=D=D=D=",
"0DDI=D>=D=DPD=D=",
"000=Q=D=DDDDDDD=",
"    =R==DDDDDDD=",
"     =DD=DDDDS>T",
"      =DDDDDDD= ",
"      U=DDDDDD= ",
"        ======  "};