/* XPM */ 
static const char * nsvar16_xpm[] = {
"16 16 18 1",
" 	c None",
"!	c black",
"#	c #0F3B6A",
"$	c #72A9E7",
"%	c #1E2127",
"&	c #9CAEC2",
"'	c #D4E5F8",
"(	c #96BFED",
")	c #A6C4E5",
"*	c #6498D2",
"+	c #1E64B0",
",	c #8EB9E9",
"-	c #1F65B0",
".	c #9EB8D5",
"0	c #5784B7",
"1	c #528BC9",
"2	c #2166B1",
"3	c #1A5799",
"                ",
"                ",
"                ",
"        ###     ",
"       #$$$##   ",
" %% %%&$$$$$$## ",
" %% %%'($$$$$$(#",
"     &)*(($$$(+#",
"     #****((,-+#",
"     &.0***12+3#",
" %% %%&#00*1+3# ",
" %% %%  ##003#  ",
"          ###   ",
"                ",
"                ",
"                "};