/* XPM */ 
static const char * object16_xpm[] = {
"16 16 25 1",
" 	c None",
"!	c black",
"#	c #0F3B6A",
"$	c #72A9E7",
"%	c #96BFED",
"&	c #6598D2",
"'	c #6498D2",
"(	c #98C0ED",
")	c #2266B1",
"*	c #133E6C",
"+	c #D8E7F7",
",	c #B3CAE4",
"-	c #B2CAE4",
".	c #ADBCCC",
"0	c #5784B7",
"1	c #C4D7ED",
"2	c #B3CBE4",
"3	c #6B6B04",
"4	c #CADCF0",
"5	c #F6F601",
"6	c #C6D5E6",
"7	c white",
"8	c #FDFD74",
"9	c #959500",
":	c #DADA43",
"   ###          ",
"  #$$$##        ",
" #$$$$$$##      ",
"#%%$$$$$$%#     ",
"#&'%%$$$()*     ",
"#''''%%+,-.     ",
"#00'''12333     ",
" ##0041355533   ",
"   #.6355555533 ",
"     37755555573",
"     38877555793",
"     38888777993",
"     388888:9993",
"      33888:993 ",
"        338:93  ",
"          333   "};