/* XPM */ 
static const char * open_project16_xpm[] = {
"16 16 58 1",
" 	c None",
"!	c black",
"#	c #126E08",
"$	c #3F4397",
"%	c #384F9D",
"&	c #6DDB56",
"'	c #5D6778",
"(	c #43B72A",
")	c #5E76C6",
"*	c #DEE3EE",
"+	c #E1E6F0",
",	c #BFC3CC",
"-	c #D5D8DE",
".	c #E4E8F1",
"0	c #E4E9F1",
"1	c #CC2D30",
"2	c #BBB4BB",
"3	c #E5E4EA",
"4	c #DE5659",
"5	c #CC676C",
"6	c #B20000",
"7	c #893F43",
"8	c #E2E4E8",
"9	c #E2D2D7",
":	c #E40000",
";	c #CC8C91",
"<	c #A30000",
"=	c #870000",
">	c #87939E",
"?	c #E8EAED",
"@	c #F2F4F8",
"A	c #D70000",
"B	c #A70000",
"C	c #950000",
"D	c #EFF0F2",
"E	c #EDC1C2",
"F	c #D50000",
"G	c #ECEFF5",
"H	c #F6F7F8",
"I	c #F17979",
"J	c #A90000",
"K	c #590000",
"L	c #E18587",
"M	c #F30000",
"N	c #E03D3E",
"O	c #FBFBFB",
"P	c #FBFBFC",
"Q	c #FCFCFD",
"R	c #480000",
"S	c #880000",
"T	c #FF0000",
"U	c #E60000",
"V	c #F00000",
"W	c #D00303",
"X	c white",
"Y	c #7C4443",
"Z	c #E8D0D1",
"[	c #F9FAFC",
"           #    ",
" $%%%%%%%%#&#%%%",
"'''''''''#&((#)%",
"'*******#&(((&#%",
"'**''''####&(###",
"'++'***,,,#&(#-'",
"'.0'***122#&(#-'",
"'34'++567#&(#88'",
"'9:'.0;<=#&(#>?'",
"'@A'34:BC&&#'DD'",
"'EF'9:##&(#G'>H'",
"'IJ'@AKLLMNL'OP'",
"'QQ'EFRSTUVW'>X'",
"''''IJYZ[[[['XX'",
"   'QQQQQQQQ''''",
"   ''''''''''   "};