/* XPM */ 
static const char * open_document16_xpm[] = {
"16 16 25 1",
" 	c None",
"!	c black",
"#	c #126E08",
"$	c #6DDB56",
"%	c #43B72A",
"&	c #A6781E",
"'	c #F6ECC1",
"(	c #F3E5A8",
")	c #EDD78D",
"*	c #EAC975",
"+	c #E5C26D",
",	c #FBF7E5",
"-	c #A2751D",
".	c #E2B661",
"0	c #9B701C",
"1	c #D7B75F",
"2	c #F1E19D",
"3	c #946B1B",
"4	c #BC9339",
"5	c #EDD984",
"6	c #8C6619",
"7	c #865D0A",
"8	c #866118",
"9	c #694C13",
":	c #825E17",
"          #     ",
"         #$#    ",
"        #$%%#   ",
"       #$%%%$#  ",
"  &&&&####$%### ",
" &''''&&&#$%#   ",
"&((((((((#$%#   ",
"&))))))))#$%#   ",
"&**&&&&&&#$#&&&&",
"&++&,,,,#$%#,,,&",
"-..-''''#%#''''-",
"010222####22220 ",
"3435####5555553 ",
"676555555555556 ",
"89855555555556  ",
" :::::::::::::  "};