/* XPM */ 
static const char * output_window16_xpm[] = {
"16 16 23 1",
" 	c None",
"!	c black",
"#	c #384F9D",
"$	c #5E76C6",
"%	c #8B9CD6",
"&	c #CE1F1F",
"'	c #5D6778",
"(	c #D2D6DC",
")	c #D3D6DC",
"*	c #D6D9DF",
"+	c #D5D8DE",
",	c #DDDFE4",
"-	c #87939E",
".	c #E2E4E8",
"0	c #E1E3E7",
"1	c #E8EAED",
"2	c #EFF1F3",
"3	c #EFF0F2",
"4	c #EEF0F2",
"5	c #F6F7F8",
"6	c #FBFBFC",
"7	c #FBFBFB",
"8	c white",
"                ",
" ############## ",
" #$%$$$$$$$$&$# ",
" ############## ",
" '()))))()))))' ",
" '*+++++++*+++' ",
" ',----------,' ",
" '..00........' ",
" '1----------1' ",
" '232333243233' ",
" '5----------5' ",
" '666667666676' ",
" '8----------8' ",
" '888888888888' ",
" '''''''''''''' ",
"                "};