/* XPM */ 
static const char * outputclear16_xpm[] = {
"16 16 90 1",
" 	c None",
"!	c black",
"#	c #384F9D",
"$	c #5E76C6",
"%	c #8B9CD6",
"&	c #CE1F1F",
"'	c #E01F04",
"(	c #DF1F04",
")	c #5B4680",
"*	c #733E66",
"+	c #E11F04",
",	c #E31E02",
"-	c #E22105",
".	c #D9B4B3",
"0	c #D3D6DC",
"1	c #D2D6DC",
"2	c #D5CBCE",
"3	c #E12C13",
"4	c #DE351D",
"5	c #5D6778",
"6	c #705E69",
"7	c #F0422B",
"8	c #E21E02",
"9	c #E12105",
":	c #DAB5B4",
";	c #D5D8DE",
"<	c #DD8075",
"=	c #E1270C",
">	c #D7CCD0",
"?	c #DED3D6",
"@	c #DF351F",
"A	c #E11E02",
"B	c #DF2004",
"C	c #AD6763",
"D	c #87939E",
"E	c #BB5247",
"F	c #E22004",
"G	c #DC250C",
"H	c #8E8C94",
"I	c #DDDFE4",
"J	c #E2E4E8",
"K	c #E3D8DA",
"L	c #EA6958",
"M	c #E01E02",
"N	c #E26D5E",
"O	c #DF341B",
"P	c #E03118",
"Q	c #E8EAED",
"R	c #C74B3C",
"S	c #D72911",
"T	c #EFF1F3",
"U	c #EFF0F2",
"V	c #E04933",
"W	c #DF1E02",
"X	c #EAA197",
"Y	c #F6F7F8",
"Z	c #CF301A",
"[	c #DC2004",
"]	c #DE1E02",
"^	c #C34B3C",
"_	c #A96763",
"`	c #FBFBFC",
"a	c #DF361D",
"b	c #DC1E02",
"c	c #DD1E02",
"d	c #F1A89E",
"e	c #FBFBFB",
"f	c #F4B6AD",
"g	c #DD2106",
"h	c #F0A89E",
"i	c #646271",
"j	c #DC2C12",
"k	c #DB1E02",
"l	c #A76763",
"m	c #987D80",
"n	c #BC4A3D",
"o	c white",
"p	c #D42108",
"q	c #DA1E02",
"r	c #DB2206",
"s	c #F0AAA0",
"t	c #F9D5CF",
"u	c #DE290E",
"v	c #E77261",
"w	c #D81F04",
"x	c #735962",
"y	c #656271",
"z	c #D62108",
"{	c #A9392E",
"|	c #DE3016",
"                ",
" ############## ",
" #$%$$$$$$$$&$# ",
" '()#########*# ",
" +,-.0001002345 ",
" 6789:;;;;<==>5 ",
" 5?@ABCDDEFGHI5 ",
" 5JKLAMNO8PJJJ5 ",
" 5QDDRMMASDDDQ5 ",
" 5TUTVWWWXUTUU5 ",
" 5YDZ[]^W]_DDY5 ",
" 5`abcdefgche`5 ",
" ijkklDDDm[cno5 ",
" pqrsoooootubv5 ",
" pwx5555555yzk{ ",
"             |k "};