/* XPM */ 
static const char * package16_xpm[] = {
"16 16 8 1",
" 	c None",
"!	c black",
"#	c #530053",
"$	c #191C20",
"%	c #BA00BA",
"&	c #F188F1",
"'	c #D42CD4",
"(	c #800080",
"                ",
"       ##       ",
"   $$ #%%## $$  ",
"  $$ #&&%%&# $$ ",
"  $$ #''&&(# $$ ",
"  $$ #'''((# $$ ",
"  $$  ##'(#  $$ ",
"  $$    ##   $$ ",
" $$    ##     $$",
"  $$  #%%##  $$ ",
"  $$ #&&%%&# $$ ",
"  $$ #''&&(# $$ ",
"  $$ #'''((# $$ ",
"  $$  ##'(#  $$ ",
"   $$   ##  $$  ",
"                "};