/* XPM */ 
static const char * paste_clipboard16_xpm[] = {
"16 16 34 1",
" 	c None",
"!	c black",
"#	c #5D6778",
"$	c #80502B",
"%	c #DEE3EE",
"&	c #BEA483",
"'	c #BFC3CC",
"(	c #BCA280",
")	c #BCA07E",
"*	c #BA9F7C",
"+	c #B99D7A",
",	c #BEA382",
"-	c #B89B77",
".	c #B79974",
"0	c #B4956F",
"1	c #E0E4EE",
"2	c white",
"3	c #E1E6F0",
"4	c #B59772",
"5	c #E4E8F1",
"6	c #B2936C",
"7	c #B19169",
"8	c #E7EAF3",
"9	c #AF8F66",
":	c #AE8D64",
";	c #EDF0F6",
"<	c #AC8B61",
"=	c #AB895E",
">	c #AA875C",
"?	c #A8865A",
"@	c #F0F2F7",
"A	c #A88458",
"B	c #A78356",
"C	c #F4F5F9",
"      ###       ",
"  $$##%%%##$$   ",
" $&&#'''''#()$  ",
" $&&#######*+$  ",
" $&&&&,()*+-.$  ",
" $&&,#######0$  ",
" $,()#%%%''##$  ",
" $)*+#1111'#2#  ",
" $+-.#3333'#### ",
" $.40#5####'''# ",
" $067#88888888# ",
" $79:#;######;# ",
" $:<=#;;;;;;;;# ",
" $=>?#@######@# ",
" $?AB#CCCCCCCC# ",
"  $$$########## "};