/* XPM */ 
static const char * precompile_changes16_xpm[] = {
"16 16 35 1",
" 	c None",
"!	c #384F9D",
"#	c black",
"$	c #5E76C6",
"%	c #8B9CD6",
"&	c #3F3F3F",
"'	c #5D6778",
"(	c #D2D6DC",
")	c #D3D6DC",
"*	c #CE1F1F",
"+	c #949494",
",	c #D6D9DF",
"-	c #C4C9D0",
".	c white",
"0	c #4E4E4E",
"1	c #878787",
"2	c #DDDFE4",
"3	c #E2E4E8",
"4	c #E1E3E7",
"5	c #EFF0F2",
"6	c #E8EAED",
"7	c #D2D6DB",
"8	c #EFF1F3",
"9	c #EEF0F2",
":	c #6A6A6A",
";	c #383838",
"<	c #D7DADF",
"=	c #FBFBFB",
">	c #4A4A4A",
"?	c #272727",
"@	c #F6F7F8",
"A	c #DCE0E3",
"B	c #FBFBFC",
"C	c #E0E3E6",
"D	c #E3E6E9",
"!!!!!!          ",
"!$%$$$!!!       ",
"!!!!!!$$$!&&&&  ",
"'())))!!!*&++&&&",
"',----())!&..0++",
"',,,,,---)&..1..",
"'2####,,,-&++1..",
"'33433###5&++0++",
"'67777895#&::;::",
"'85555<<<=&>>?>>",
"'@AAAABBBC&>>0++",
"'BBBB=CCC.&++&&&",
"'.DDDD...'&&&&  ",
"'.....'''       ",
"''''''          ",
"                "};