/* XPM */ 
static const char * precompile_all16_xpm[] = {
"16 16 23 1",
" 	c None",
"!	c black",
"#	c #5D6778",
"$	c #BFC3CC",
"%	c #DEE3EE",
"&	c #E8ECF3",
"'	c #3F3F3F",
"(	c #949494",
")	c white",
"*	c #4E4E4E",
"+	c #878787",
",	c #ECEFF5",
"-	c #E1E6F0",
".	c #F2F4F8",
"0	c #E4E8F1",
"1	c #F5F6F9",
"2	c #6A6A6A",
"3	c #383838",
"4	c #F9FAFC",
"5	c #4A4A4A",
"6	c #272727",
"7	c #FCFCFD",
"8	c #F4F6F9",
"   #######      ",
"  ##$$%%%#      ",
" #&#$%%%%#''''  ",
"####$#####'(('''",
"#$$$##$$%%'))*((",
"#&##&#$%%%'))+))",
"#,####$---'((+))",
"#.#$$$0000'((*((",
"#1#&######'22322",
"#4#,,,,,,,'55655",
"#7#.######'55*((",
"###1118111'(('''",
"  #44####)''''  ",
"  #777777##     ",
"  #######       ",
"                "};