/* XPM */ 
static const char * precompile_file16_xpm[] = {
"16 16 23 1",
" 	c None",
"!	c black",
"#	c #5D6778",
"$	c #3F3F3F",
"%	c #BFC3CC",
"&	c #DEE3EE",
"'	c #949494",
"(	c #E8ECF3",
")	c white",
"*	c #4E4E4E",
"+	c #E1E6F0",
",	c #878787",
"-	c #E4E8F1",
".	c #ECEFF5",
"0	c #6A6A6A",
"1	c #383838",
"2	c #F2F4F8",
"3	c #4A4A4A",
"4	c #272727",
"5	c #F5F6F9",
"6	c #F4F6F9",
"7	c #F9FAFC",
"8	c #FCFCFD",
"                ",
"                ",
"    ##### $$$$  ",
"   ##%%&&#$''$$$",
"  #(#%&&&&$))*''",
" ####%++++$)),))",
" #%%%-----$'',))",
" #(######($''*''",
" #........$00100",
" #2######2$33433",
" #55565555$33*''",
" #77####77$''$$$",
" #88888888$$$$  ",
" #########      ",
"                ",
"                "};