/* XPM */ 
static const char * print16_xpm[] = {
"16 16 32 1",
" 	c None",
"!	c black",
"#	c #5D6778",
"$	c #DEE3EE",
"%	c #E1E6F0",
"&	c #E8ECF3",
"'	c #F4F5F9",
"(	c #F0F3F7",
")	c #414141",
"*	c #C9C9C9",
"+	c #959595",
",	c #636363",
"-	c #CDCDCD",
".	c #7D7D7D",
"0	c #808080",
"1	c #666666",
"2	c #E1E1E1",
"3	c #B6B6B6",
"4	c #5C5C5C",
"5	c #BEBEBE",
"6	c #777777",
"7	c #484848",
"8	c #757575",
"9	c #585858",
":	c #B5B5B5",
";	c #6F6F6F",
"<	c #737373",
"=	c #676767",
">	c #BBBBBB",
"?	c #A5A5A5",
"@	c #464646",
"A	c #9E9E9E",
"  #$$$$$#       ",
"  #$$$%&&#      ",
"   #'&&((#))    ",
"   #''('''#*)   ",
"    #'''''#+*)  ",
"   )#'''##+,*-) ",
"  ))#'##++.0122)",
" )2*+#++.003345)",
" )62*7.0033889:)",
" )662-13388;;9:)",
" )6662248;;;!!<)",
" )=66>?9;;!!))) ",
"  )=66?9!!)):::)",
"   )=6?@)):::)) ",
"    )=A))::))   ",
"     ))  ))     "};