/* XPM */ 
static const unsigned char * properties_doc16_xpm[] = {
"16 16 51 1",
" 	c None",
"!	c black",
"#	c #5D6778",
"$	c #DEE3EE",
"%	c #BFC3CC",
"&	c #E0E4EF",
"'	c #DFE4EE",
"(	c #E0E5EE",
")	c #E0E4EE",
"*	c #E1E6F0",
"+	c #E2E6F0",
",	c white",
"-	c #E4E8F1",
".	c #FB0C03",
"0	c #E7EAF3",
"1	c #363C46",
"2	c #C8222A",
"3	c #EAEDF4",
"4	c #FBFCFE",
"5	c #FC5C56",
"6	c #EDF0F6",
"7	c #FEE6E4",
"8	c #FEDAD9",
"9	c #FD9B98",
":	c #993824",
";	c #EDEFF6",
"<	c #F0F2F7",
"=	c #FC5852",
">	c #FB1C14",
"?	c #FDBEBC",
"@	c #FEF0EF",
"A	c #FB221A",
"B	c #FC564F",
"C	c #F0F3F7",
"D	c #F4F5F9",
"E	c #FED7D6",
"F	c #FC4A43",
"G	c #FC4740",
"H	c #F6F7FA",
"I	c #FC837E",
"J	c #FC5F59",
"K	c #F6F8FA",
"L	c #F9F9FC",
"M	c #FD928E",
"N	c #FDBBB8",
"O	c #F9FAFC",
"P	c #FBFCFD",
"Q	c #FEFEFE",
"R	c #FDFEFE",
"S	c #FDFDFE",
"T	c #FDFEFF",
"  ########      ",
"  #$$$$%%##     ",
"  #&'()&%#'#    ",
"  #*++**%#,'#   ",
"  #-----%#####. ",
"  #000000%%%... ",
"  #011111112.#  ",
"  #31444445.3#  ",
"  #6178449.:;#  ",
"  #<1=>?@AB1C#  ",
"  #D1EF.G.81D#  ",
"  #H144I.J41K#  ",
"  #L1444MN41O#  ",
"  #P11111111P#  ",
"  #QQQRRSTRRQ#  ",
"  ############  "};