/* XPM */ 
static const char * redo16_xpm[] = {
"16 16 6 1",
" 	c None",
"!	c black",
"#	c #81B0F6",
"$	c #0362EE",
"%	c #0048B2",
"&	c #C0D8FB",
"                ",
"                ",
"     #$$$#      ",
"    $$%%%$$  $  ",
"   $$%#&#%$$#$  ",
"  #$$     %$$$  ",
"  %$#     #%$$  ",
"  %$&    $$$$$  ",
"  %$#           ",
"  #$$           ",
"   %$$#&#$$&    ",
"    %$$$$$$     ",
"     #%%%#      ",
"                ",
"                ",
"                "};