/* XPM */ 
static const char * refresh16_xpm[] = {
"16 16 5 1",
" 	c None",
"!	c black",
"#	c #126E08",
"$	c #43B72A",
"%	c #6DDB56",
"                ",
"      #####     ",
"     #$$#%%#    ",
"         #%$#   ",
"         #%$#   ",
"    #     #%$#  ",
"   #%# ####%$###",
"  #$$%# #%$$$%# ",
" #%$$$%# #%$$#  ",
"###$%#### #%#   ",
"  #$%#     #    ",
"   #$%#         ",
"   #$%#         ",
"    #%%#$$#     ",
"     #####      ",
"                "};