/* XPM */ 
static const char * refreshpage16_xpm[] = {
"16 16 27 1",
" 	c None",
"!	c black",
"#	c #5D6778",
"$	c #126E08",
"%	c #DEE3EE",
"&	c #43B72A",
"'	c #6DDB56",
"(	c #E0E4EF",
")	c #DFE4EE",
"*	c #E0E5EE",
"+	c #E0E4EE",
",	c #BFC3CC",
"-	c #E1E6F0",
".	c #E2E6F0",
"0	c #E4E8F1",
"1	c #E6EBF3",
"2	c #EDF0F6",
"3	c #F3F5F9",
"4	c #F4F5F9",
"5	c #F3F5F8",
"6	c #F6F8FA",
"7	c #F9FAFB",
"8	c #F9F9FC",
"9	c #F9FAFC",
":	c #FBFCFD",
";	c #FEFEFE",
"<	c #FDFEFE",
"                ",
"  ####$$$$$     ",
"  #%%$&&$''$    ",
"  #()*+(,$'&$   ",
"  #-..--,$'&$   ",
"  #0$#####$'&$  ",
"  #$'$1$$$$'&$$$",
"  $&&'$#$'&&&'$ ",
" $'&&&'$2$'&&$  ",
"$$$&'$$$$#$'$#  ",
"  $&'$34453$4#  ",
"  #$&'$#####6#  ",
"  #$&'$789999#  ",
"  #:$''$&&$#:#  ",
"  #;;$$$$$<<;#  ",
"  ############  "};