#define right_mono_width 14
#define right_mono_height 14
#define right_mono_x_hot 0
#define right_mono_y_hot 0
static char right_mono_bits[] = {
  0xFF,0xFF,0xFF,0xFF,0xDF,0xFF,0x9F,0xFF,0x1F,0xFF,0x1F,0xFE,
  0x1F,0xFC,0x1F,0xFE,0x1F,0xFF,0x9F,0xFF,0xDF,0xFF,0xFF,0xFF,
  0xFF,0xFF,0xFF,0xFF};