/* XPM */ 
static const char * save_all16_xpm[] = {
"16 16 38 1",
" 	c None",
"!	c #17437D",
"#	c #D3D6DC",
"$	c black",
"%	c #6D97D0",
"&	c #D6D9DF",
"'	c #A7ADB7",
"(	c #6492CD",
")	c #ABB0BA",
"*	c #AEB3BD",
"+	c #B6BBC3",
",	c #DDDFE4",
"-	c #5D6778",
".	c #5C8CCB",
"0	c #6A96CF",
"1	c #BCC0C7",
"2	c #E2E4E8",
"3	c #5486C8",
"4	c #EFF1F3",
"5	c #4A7FC5",
"6	c #5889C9",
"7	c #F9F9F9",
"8	c #4178C2",
"9	c #4F83C7",
":	c #3772BF",
";	c #457CC4",
"<	c #3C75C0",
"=	c #326EBE",
">	c #2E6BBC",
"?	c #2A68BB",
"@	c #2666BA",
"A	c #DEE3EE",
"B	c #D6DBE7",
"C	c #CBD1DC",
"D	c #B7BECA",
"E	c #1C4780",
"F	c #2061B8",
"G	c #1E60B7",
"!!#########!!   ",
"!%&''''''''(!   ",
"!%)!!#########!!",
"!%*!%&&&&&&&&&(!",
"!%+!%,-------,.!",
"!01!%2222222223!",
"!(1!%4-------45!",
"!.6!07777777778!",
"!39!(777777777:!",
"!5;!.6395;8<:=>!",
"!8<!395;8<:=>?@!",
"!:=!5;AAABCDCEF!",
"!>?!8<A!!BCDC!G!",
" !!!:=A!!BCDC!G!",
"   !>?A!!BCDC!G!",
"    !!-------!! "};