/* XPM */ 
static const char * save16_xpm[] = {
"16 16 35 1",
" 	c None",
"!	c black",
"#	c #17437D",
"$	c #D3D6DC",
"%	c #6D97D0",
"&	c #D6D9DF",
"'	c #6492CD",
"(	c #DDDFE4",
")	c #5D6778",
"*	c #5C8CCB",
"+	c #E2E4E8",
",	c #5486C8",
"-	c #EFF1F3",
".	c #4A7FC5",
"0	c white",
"1	c #F9F9F9",
"2	c #4178C2",
"3	c #6894CE",
"4	c #3772BF",
"5	c #618FCC",
"6	c #5889C9",
"7	c #4F83C7",
"8	c #457CC4",
"9	c #3C75C0",
":	c #326EBE",
";	c #2E6BBC",
"<	c #2A68BB",
"=	c #2666BA",
">	c #DEE3EE",
"?	c #D6DBE7",
"@	c #CBD1DC",
"A	c #B7BECA",
"B	c #1C4780",
"C	c #2061B8",
"D	c #1E60B7",
"                ",
" ##$$$$$$$$$$## ",
" #%&&&&&&&&&&'# ",
" #%())))))))(*# ",
" #%++++++++++,# ",
" #%-))))))))-.# ",
" #%01111111112# ",
" #301111111114# ",
" #5*6,7.8294:;# ",
" #6,7.8294:;<=# ",
" #7.>>>>?@A@BC# ",
" #82>##>?@A@#D# ",
" #94>##>?@A@#D# ",
" #:;>##>?@A@#D# ",
"  ##))))))))##  ",
"                "};