/* XPM */ 
static const char * search_prev16_xpm[] = {
"16 16 50 1",
" 	c None",
"!	c black",
"#	c #5D6778",
"$	c #01217E",
"%	c #C1C7C0",
"&	c #D4D8D1",
"'	c #E3E6E0",
"(	c #E4E8E1",
")	c #B0B4BD",
"*	c #B8BBB2",
"+	c #D2D6D0",
",	c #E2E5DF",
"-	c #EBEFE9",
".	c #EEF5ED",
"0	c #F8FAF6",
"1	c #5478E2",
"2	c #A2A396",
"3	c #C7CAC2",
"4	c white",
"5	c #E5EAE3",
"6	c #F0F6EF",
"7	c #F9FCF9",
"8	c #1F55F3",
"9	c #A7A596",
":	c #DFE2DB",
";	c #E9EEE8",
"<	c #F3F9F2",
"=	c #FBFEFC",
">	c #95A297",
"?	c #C4C5BE",
"@	c #DFE3DC",
"A	c #EDF1E9",
"B	c #F3F8F2",
"C	c #F8FCF7",
"D	c #FEFFFE",
"E	c #AAB2A8",
"F	c #D3D5CE",
"G	c #EAEEE6",
"H	c #F4F9F3",
"I	c #F5FAF4",
"J	c #A7A89F",
"K	c #E4E3DD",
"L	c #EBE9E2",
"M	c #E9EBE4",
"N	c #758C88",
"O	c #D8DEDD",
"P	c #B6B6B6",
"Q	c #6B6B6B",
"R	c #87939E",
"S	c #D5D9DD",
"   ####   $     ",
"  #%&'() $$     ",
" #*+,-.0$1$$$$$$",
"#234567$1811111$",
"#94:;7$18888888$",
"#94:;<=$8888888$",
"#>?@ABCD$8$$$$$$",
" #EFGHI4)$$     ",
"  #JKLM#NO$     ",
"   #### NNP     ",
"         !!Q    ",
" RRR RR   !!Q   ",
"           !!Q  ",
" RR RRRR RR !!Q ",
"             !!Q",
" SSSS SS SS   !!"};