/* XPM */ 
static const char * search_next16_xpm[] = {
"16 16 43 1",
" 	c None",
"!	c black",
"#	c #5D6778",
"$	c #01217E",
"%	c #C1C7C0",
"&	c #D4D8D1",
"'	c #F1F3F0",
"(	c #F2F4F0",
")	c #AEB3BC",
"*	c #B8BBB2",
"+	c #D2D6D0",
",	c #E2E5DF",
"-	c #F5F7F4",
".	c #5478E2",
"0	c #A2A396",
"1	c #C7CAC2",
"2	c white",
"3	c #E5EAE3",
"4	c #F8FBF7",
"5	c #1F55F3",
"6	c #A7A596",
"7	c #DFE2DB",
"8	c #E9EEE8",
"9	c #F9FCF9",
":	c #95A297",
";	c #C4C5BE",
"<	c #DFE3DC",
"=	c #EDF1E9",
">	c #AAB2A8",
"?	c #D3D5CE",
"@	c #EAEEE6",
"A	c #FAFCF9",
"B	c #FAFDFA",
"C	c #A7A89F",
"D	c #E4E3DD",
"E	c #EBE9E2",
"F	c #E9EBE4",
"G	c #758C88",
"H	c #AFBCBA",
"I	c #B5B5B5",
"J	c #6B6B6B",
"K	c #87939E",
"L	c #D5D9DD",
"   ####    $    ",
"  #%&'()   $$   ",
" #*+,-$$$$$$.$  ",
"#01234$.....55$ ",
"#62789$.5555555$",
"#62789$.555555$ ",
"#:;<=9$$$$$$5$  ",
" #>?@AB2)  $$   ",
"  #CDEF#GH $    ",
"   #### GGI     ",
"         !!J    ",
" KKK KK   !!J   ",
"           !!J  ",
" KK KKKK KK !!J ",
"             !!J",
" LLLL LL LL   !!"};