/* XPM */ 
static const char * searchblock16_xpm[] = {
"16 16 67 1",
" 	c None",
"!	c black",
"#	c #6B6B04",
"$	c #5D6778",
"%	c #F6F601",
"&	c #C1C7C0",
"'	c #D4D8D1",
"(	c #E3E6E0",
")	c #E4E8E1",
"*	c #B5B582",
"+	c white",
",	c #B8BBB2",
"-	c #D2D6D0",
".	c #E2E5DF",
"0	c #EBEFE9",
"1	c #EEF5ED",
"2	c #F0F5ED",
"3	c #E5E5D4",
"4	c #FEFEBA",
"5	c #FDFD74",
"6	c #959500",
"7	c #A2A396",
"8	c #C7CAC2",
"9	c #E5EAE3",
":	c #F0F6EF",
";	c #F2F9F2",
"<	c #F7FCF8",
"=	c #D6E0DB",
">	c #FFFFE7",
"?	c #889EB5",
"@	c #0F3B6A",
"A	c #A7A596",
"B	c #DFE2DB",
"C	c #E9EEE8",
"D	c #F3F9F2",
"E	c #D5DDE5",
"F	c #B9D5F3",
"G	c #72A9E7",
"H	c #F7FDF8",
"I	c #FEFFFE",
"J	c #EDF4FC",
"K	c #CBDFF6",
"L	c #96BFED",
"M	c #95A297",
"N	c #C4C5BE",
"O	c #DFE3DC",
"P	c #EDF1E9",
"Q	c #F3F8F2",
"R	c #F8FCF7",
"S	c #FCFEFD",
"T	c #CBD7D8",
"U	c #E4EDF7",
"V	c #B2CCE9",
"W	c #1E64B0",
"X	c #AAB2A8",
"Y	c #D3D5CE",
"Z	c #EAEEE6",
"[	c #F4F9F3",
"]	c #F5FAF4",
"^	c #6498D2",
"_	c #A7A89F",
"`	c #E4E3DD",
"a	c #EBE9E2",
"b	c #E9EBE4",
"c	c #758C88",
"d	c #AFBCBA",
"e	c #6B6B6B",
"           ##   ",
"   $$$$   #%%## ",
"  $&'()$ *++%%+#",
" $,-.012$345++6#",
"$78+9:;<=$>?@66#",
"$A+BCD;<=$EFG@@ ",
"$A+BCDHI=$JKGGL@",
"$MNOPQRST$UVLLW@",
" $XYZ[]+$EVV^WW@",
"  $_`ab$cdE?VW@ ",
"   $$$$ cce ?@  ",
"         !!e    ",
"          !!e   ",
"           !!e  ",
"            !!e ",
"             !!e"};