/* XPM */ 
static const char * search16_xpm[] = {
"16 16 47 1",
" 	c None",
"!	c black",
"#	c #5D6778",
"$	c #C1C7C0",
"%	c #D4D8D1",
"&	c #E3E6E0",
"'	c #E4E8E1",
"(	c #B8BBB2",
")	c #D2D6D0",
"*	c #E2E5DF",
"+	c #EBEFE9",
",	c #EEF5ED",
"-	c #F0F5ED",
".	c #A2A396",
"0	c #C7CAC2",
"1	c white",
"2	c #E5EAE3",
"3	c #F0F6EF",
"4	c #F2F9F2",
"5	c #F7FCF8",
"6	c #D6E0DB",
"7	c #A7A596",
"8	c #DFE2DB",
"9	c #E9EEE8",
":	c #F3F9F2",
";	c #F7FDF8",
"<	c #FEFFFE",
"=	c #95A297",
">	c #C4C5BE",
"?	c #DFE3DC",
"@	c #EDF1E9",
"A	c #F3F8F2",
"B	c #F8FCF7",
"C	c #FCFEFD",
"D	c #CBD7D8",
"E	c #AAB2A8",
"F	c #D3D5CE",
"G	c #EAEEE6",
"H	c #F4F9F3",
"I	c #F5FAF4",
"J	c #A7A89F",
"K	c #E4E3DD",
"L	c #EBE9E2",
"M	c #E9EBE4",
"N	c #758C88",
"O	c #AFBCBA",
"P	c #6B6B6B",
"   ####         ",
"  #$%&'#        ",
" #()*+,-#       ",
"#.0123456#      ",
"#7189:456#      ",
"#7189:;<6#      ",
"#=>?@ABCD#      ",
" #EFGHI1#       ",
"  #JKLM#NO      ",
"   #### NNP     ",
"         !!P    ",
"          !!P   ",
"           !!P  ",
"            !!P ",
"             !!P",
"              !!"};