/* XPM */ 
static const char * showlinenumbers16_xpm[] = {
"16 16 19 1",
" 	c None",
"!	c #D7D7D7",
"#	c black",
"$	c #D6D6D6",
"%	c #D4D4D4",
"&	c #B0B8BF",
"'	c #D1D1D1",
"(	c #CECECE",
")	c #CCCCCC",
"*	c #C8C8C8",
"+	c #C5C5C5",
",	c #C2C2C2",
"-	c #BEBEBE",
".	c #BBBBBB",
"0	c #B7B7B7",
"1	c #B5B5B5",
"2	c #B2B2B2",
"3	c #B0B0B0",
"4	c #AEAEAE",
"!!!!!           ",
"$$$$$           ",
"%%#%%  &&  &&&  ",
"'##'' &  & &  & ",
"((#(( &&&& &&&  ",
"))#)) &  & &  & ",
"**#** &  & &&&  ",
"+++++           ",
",,,,,           ",
"-##--  &&  &&&  ",
"...#. &  & &  & ",
"00#00 &    &  & ",
"1#111 &  & &  & ",
"2###2  &&  &&&  ",
"33333           ",
"44444           "};