/* XPM */ 
static const char * showspace16_xpm[] = {
"16 16 3 1",
" 	c None",
"!	c black",
"#	c #878787",
"                ",
"          !     ",
"           !    ",
"            !   ",
" !!!!!!!!!!!!!  ",
"            !   ",
"           !    ",
"##        !     ",
" #              ",
" # ##     ###   ",
" ##  #   #   #  ",
" #   # !  ####  ",
" #   #   #   #  ",
" ##  #   #  ##  ",
"## ##     ## ## ",
"                "};