/* XPM */ 
static const char * start16_xpm[] = {
"16 16 12 1",
" 	c None",
"!	c black",
"#	c #0066CC",
"$	c #69B4FF",
"%	c #5DAEFF",
"&	c #50A7FF",
"'	c #4BA5FF",
"(	c #3D9DFF",
")	c #2C95FF",
"*	c #379BFF",
"+	c #2893FF",
",	c #2390FF",
"                ",
"                ",
"                ",
"                ",
"      #         ",
"      ##        ",
"      #$#       ",
"      #%&#      ",
"      #'()#     ",
"      #*+#      ",
"      #,#       ",
"      ##        ",
"      #         ",
"                ",
"                ",
"                "};