/* XPM */ 
static const char * stepout16_xpm[] = {
"16 16 12 1",
" 	c None",
"!	c black",
"#	c #5796F4",
"$	c #4A8EF3",
"%	c #3C86F2",
"&	c #2F7DF1",
"'	c #0048B2",
"(	c #2175F0",
")	c #146DEF",
"*	c #87939E",
"+	c #0B67EE",
",	c #0362EE",
"   #            ",
"   $$           ",
" %%%%%          ",
"&&'&&'          ",
"(' ('           ",
")' '   ***** ** ",
"+'              ",
",'        *** * ",
",,,,,,,'        ",
" '''''''    *** ",
"                ",
"          ***** ",
"                ",
"       ******** ",
"                ",
"                "};