/* XPM */ 
static const char * stepin16_xpm[] = {
"16 16 10 1",
" 	c None",
"!	c black",
"#	c #5B99F4",
"$	c #0048B2",
"%	c #4A8EF3",
"&	c #3582F2",
"'	c #2175F0",
"(	c #87939E",
")	c #0F6AEF",
"*	c #0362EE",
"                ",
" ######$        ",
"%%$$$$$$        ",
"&$              ",
"'$     ((((( (( ",
")$ *            ",
"*$ **     ((( ( ",
"$*****          ",
" $$**$      ((( ",
"   *$           ",
"   $      ((((( ",
"                ",
"       (((((((( ",
"                ",
"                ",
"                "};