/* XPM */ 
static const char * stepover16_xpm[] = {
"16 16 13 1",
" 	c None",
"!	c black",
"#	c #68A1F5",
"$	c #0048B2",
"%	c #87939E",
"&	c #639EF4",
"'	c #5B99F4",
"(	c #5394F4",
")	c #4A8EF3",
"*	c #4088F2",
"+	c #3582F2",
",	c #0362EE",
"-	c #2B7BF1",
" ######$        ",
"##$$$$$$        ",
"#$              ",
"#$     %%%%% %% ",
"#$              ",
"&$        %%% % ",
"'$              ",
"($          %%% ",
")$              ",
"*$        %%%%% ",
"+$ ,            ",
"-$ ,,  %%%%%%%% ",
"$,,,,,          ",
" $$,,$          ",
"   ,$           ",
"   $            "};