/* XPM */ 
static const char * stop16_xpm[] = {
"16 16 39 1",
" 	c None",
"!	c black",
"#	c #0066CC",
"$	c #69B4FF",
"%	c #64B1FF",
"&	c #5DAEFF",
"'	c #54A9FF",
"(	c #4BA4FF",
")	c #409FFF",
"*	c #62B0FF",
"+	c #5BADFF",
",	c #52A8FF",
"-	c #48A3FF",
".	c #3E9EFF",
"0	c #3399FF",
"1	c #59ACFF",
"2	c #50A7FF",
"3	c #46A2FF",
"4	c #3C9DFF",
"5	c #3198FF",
"6	c #2792FF",
"7	c #4FA7FF",
"8	c #44A1FF",
"9	c #3A9CFF",
":	c #2F96FF",
";	c #2592FF",
"<	c #1A8CFF",
"=	c #42A0FF",
">	c #389BFF",
"?	c #2D96FF",
"@	c #2390FF",
"A	c #198BFF",
"B	c #1087FF",
"C	c #369AFF",
"D	c #2B94FF",
"E	c #218FFF",
"F	c #178BFF",
"G	c #0E86FF",
"H	c #0782FF",
"                ",
"                ",
"                ",
"                ",
"                ",
"    ########    ",
"    #$%&'()#    ",
"    #*+,-.0#    ",
"    #123456#    ",
"    #789:;<#    ",
"    #=>?@AB#    ",
"    #CDEFGH#    ",
"    ########    ",
"                ",
"                ",
"                "};