/* XPM */ 
static const char * sync_tree16_xpm[] = {
"16 16 31 1",
" 	c None",
"!	c black",
"#	c #384F9D",
"$	c #BDC5DF",
"%	c #A37C03",
"&	c #5E76C6",
"'	c #8B9CD6",
"(	c #CAD2EC",
")	c #FFEC0B",
"*	c #5D6778",
"+	c #D2D6DC",
",	c #D3D6DC",
"-	c #F1F1F3",
".	c #D6D9DF",
"0	c #D5D8DE",
"1	c #F1F2F4",
"2	c #DDDFE4",
"3	c #87939E",
"4	c #D7DBDF",
"5	c #E2E4E8",
"6	c #F5F6F7",
"7	c #CACDD3",
"8	c #F7F8F9",
"9	c #FAFAFB",
":	c #F9FAFB",
";	c #EFF0F2",
"<	c #F6F7F8",
"=	c #FEFEFE",
">	c #FBFBFC",
"?	c #FBFBFB",
"@	c white",
"                ",
" #########$%$## ",
" #&'&&&&&&(%%(# ",
" ####$$$$$$%)%$ ",
" *+,,-%%%%%%))% ",
" *.001%))))))))%",
" *2344%%%%%%))% ",
" *56%666666%)%7 ",
" *8%%433334%%8* ",
" 7%)%9999:9%9;* ",
" %))%%%%%%443<* ",
"%))))))))%=>?>* ",
" %))%%%%%%433@* ",
" 7%)%@@@@@@@@@* ",
" 77%%7********* ",
"    %           "};