/* XPM */ 
static const char * text_document16_xpm[] = {
"16 16 37 1",
" 	c None",
"!	c black",
"#	c #5D6778",
"$	c #DEE3EE",
"%	c #BFC3CC",
"&	c #E0E4EF",
"'	c #DFE4EE",
"(	c #E0E5EE",
")	c #E0E4EE",
"*	c #E1E6F0",
"+	c #E2E6F0",
",	c white",
"-	c #E4E8F1",
".	c #E7EAF3",
"0	c #E7EBF2",
"1	c #E6EBF2",
"2	c #E6EBF3",
"3	c #EAEDF4",
"4	c #EDF0F6",
"5	c #EDF0F5",
"6	c #EDEFF5",
"7	c #EDEFF6",
"8	c #F0F2F7",
"9	c #F0F3F7",
":	c #F4F5F9",
";	c #F3F5F9",
"<	c #F3F5F8",
"=	c #F6F7FA",
">	c #F6F8FA",
"?	c #F9F9FC",
"@	c #F9FAFC",
"A	c #F9FAFB",
"B	c #FBFCFD",
"C	c #FEFEFE",
"D	c #FDFEFE",
"E	c #FDFDFE",
"F	c #FDFEFF",
"                ",
"  ########      ",
"  #$$$$%%##     ",
"  #&'()&%#'#    ",
"  #*++**%#,'#   ",
"  #-##########  ",
"  #.01200%%%%#  ",
"  #3########3#  ",
"  #4545446447#  ",
"  #8########9#  ",
"  #:;:;::<;;:#  ",
"  #=########>#  ",
"  #?@@@A?@@@@#  ",
"  #B########B#  ",
"  #CCCDDEFDDC#  ",
"  ############  "};