/* XPM */ 
static const char * togglewordwrap16_xpm[] = {
"16 16 20 1",
" 	c None",
"!	c black",
"#	c #384F9D",
"$	c #5E76C6",
"%	c #8B9CD6",
"&	c #CE1F1F",
"'	c #5D6778",
"(	c #D2D6DC",
")	c #D6D9DF",
"*	c #2175F0",
"+	c #DDDFE4",
",	c #0048B2",
"-	c #E2E4E8",
".	c #E8EAED",
"0	c #0362EE",
"1	c #0F6AEF",
"2	c #EFF1F3",
"3	c #F6F7F8",
"4	c #FBFBFC",
"5	c white",
"                ",
"############### ",
"#$%$$$$$$$$$&$# ",
"############### ",
"'(((((((((((((' ",
"'))))))))***))' ",
"'+''''''+,,,*+' ",
"'----------,*-' ",
"'......0...,1.' ",
"'2222200222,02' ",
"'33330000000,3' ",
"'4444,00,,,,44' ",
"'55555,0555555' ",
"'555555,555555' ",
"''''''''''''''' ",
"                "};