/* XPM */ 
static const char * topics16_xpm[] = {
"16 16 20 1",
" 	c None",
"!	c black",
"#	c #0B6B04",
"$	c #140F6A",
"%	c #46B51C",
"&	c #7972E7",
"'	c #CEA63C",
"(	c #17126C",
")	c #A5979A",
"*	c #9B96ED",
"+	c #6B65D2",
",	c #6A64D2",
"-	c #989898",
".	c #6C65D2",
"0	c #CBCCCC",
"1	c #5D57B7",
"2	c #6761BB",
"3	c #5F59BB",
"4	c #5952C9",
"5	c #211A99",
"                ",
"  #  $$         ",
" #%#$&&$$       ",
"#%%$&&&&&$$     ",
" #$&&&'&&&&($   ",
" $&&&)'''&&&&$$ ",
"$**&&&)'''&&&&*$",
"$+,**&&&)&&&&*- ",
"$,,+.**&&&&&*-0$",
"$11,...**&&*-0-$",
" $$12...,**-0-$ ",
"   $$33.+4-0-$  ",
"     $$1340-$   ",
"       $$15$    ",
"         $$     ",
"                "};