/* XPM */ 
static const char * torsion16_xpm[] = {
"16 16 58 1",
" 	c None",
"!	c black",
"#	c #FFB225",
"$	c #FFB525",
"%	c #F6A32B",
"&	c #D08432",
"'	c #D68931",
"(	c #F7A42B",
")	c #FFAF26",
"*	c #975B30",
"+	c #502B20",
",	c #8F542F",
"-	c #F4A22C",
".	c #E3942E",
"0	c #FBA929",
"1	c #EC9C2D",
"2	c #9B5D31",
"3	c #5A3123",
"4	c #E7972E",
"5	c #78442B",
"6	c #311E17",
"7	c #B57032",
"8	c #FFB624",
"9	c #FFB724",
":	c #FFAB28",
";	c #AC6A32",
"<	c #FFB325",
"=	c #B67032",
">	c #FFAD28",
"?	c #E8982E",
"@	c #B87232",
"A	c #BD7632",
"B	c #7A462C",
"C	c #F6A32A",
"D	c #46231C",
"E	c #A26131",
"F	c #F19F2C",
"G	c #824C2D",
"H	c #613525",
"I	c #FFB425",
"J	c #FFAA28",
"K	c #F19E2C",
"L	c #D48731",
"M	c #C07932",
"N	c #4B271E",
"O	c #EE9C2D",
"P	c #9D5E31",
"Q	c #542D21",
"R	c #E09130",
"S	c #AA6832",
"T	c #2B1D16",
"U	c #A16231",
"V	c #F6A42B",
"W	c #F4A22B",
"X	c #CD8132",
"Y	c #673927",
"Z	c #925730",
"[	c #6A3C28",
"                ",
"    #$%&'(      ",
"   $)*   +,-    ",
"  .$0    1234   ",
" 5$#$  6789 3:  ",
" ;8#<   =>?  @  ",
" A$#<  B8CD7 B8 ",
" E8#<  F$#   G8 ",
" HI##JKI#    L$ ",
"  M9##<##   I<# ",
"  NO$###  P8<## ",
"   QR9<$  S8$<  ",
"    TUV   W8X   ",
"      Y   Z[    ",
"                ",
"                "};