/* XPM */ 
static const char * torsion32_xpm[] = {
"32 32 117 2",
"  	c None",
"! 	c black",
"# 	c #FFB225",
"$ 	c #FFB525",
"% 	c #FFB624",
"& 	c #FFB724",
"' 	c #FFB325",
"( 	c #D88B31",
") 	c #A66531",
"* 	c #8B522F",
"+ 	c #975A30",
", 	c #BB7432",
"- 	c #F19E2D",
". 	c #FFB425",
"0 	c #BE7832",
"1 	c #6D3E29",
"2 	c #090705",
"3 	c #000003",
"4 	c #1F1710",
"5 	c #6F3F2A",
"6 	c #B16D32",
"7 	c #F5A22B",
"8 	c #F9A82A",
"9 	c #7E4A2D",
": 	c #000001",
"; 	c #241A13",
"< 	c #A86732",
"= 	c #FFB026",
"> 	c #BC7532",
"? 	c #79452C",
"@ 	c #FFAB28",
"A 	c #B67133",
"B 	c #633726",
"C 	c #FAA729",
"D 	c #5B3224",
"E 	c #FDAA29",
"F 	c #48251D",
"G 	c #935830",
"H 	c #6B3C28",
"I 	c #A46331",
"J 	c #5A3123",
"K 	c #CF8432",
"L 	c #000002",
"M 	c #9D5E31",
"N 	c #D58831",
"O 	c #B87232",
"P 	c #010101",
"Q 	c #1A140F",
"R 	c #F2A02C",
"S 	c #9F6031",
"T 	c #EC9B2D",
"U 	c #FAA629",
"V 	c #925730",
"W 	c #FEA928",
"X 	c #FFAC28",
"Y 	c #8A512F",
"Z 	c #2B1D16",
"[ 	c #A06131",
"] 	c #4D291F",
"^ 	c #FEAA29",
"_ 	c #4D281F",
"` 	c #CB8032",
"a 	c #AB6932",
"b 	c #0A0907",
"c 	c #E6962F",
"d 	c #291C15",
"e 	c #F6A32B",
"f 	c #8E542F",
"g 	c #0A0906",
"h 	c #DB8D31",
"i 	c #0C0A07",
"j 	c #DE8F30",
"k 	c #71402A",
"l 	c #FFB226",
"m 	c #120F0A",
"n 	c #EC9A2D",
"o 	c #B77232",
"p 	c #D78931",
"q 	c #6A3B28",
"r 	c #FFB126",
"s 	c #6E3F2A",
"t 	c #EA992E",
"u 	c #C47B32",
"v 	c #050503",
"w 	c #DF9030",
"x 	c #FFAC27",
"y 	c #75432B",
"z 	c #FFAF27",
"{ 	c #965A30",
"| 	c #13100C",
"} 	c #CC8132",
"~ 	c #8C532F",
" !	c #E7972F",
"!!	c #361F19",
"#!	c #C97E32",
"$!	c #ED9B2D",
"%!	c #C07933",
"&!	c #512B20",
"'!	c #FFAE26",
"(!	c #FFB125",
")!	c #0C0A08",
"*!	c #7A472D",
"+!	c #F19F2C",
",!	c #6C3D29",
"-!	c #3F211A",
".!	c #834C2E",
"0!	c #E7962E",
"1!	c #8D532F",
"2!	c #CA7F32",
"3!	c #251A13",
"4!	c #BD7632",
"5!	c #FEAC29",
"6!	c #E6962E",
"7!	c #BA7532",
"8!	c #854E2E",
"9!	c #080705",
":!	c #49251E",
"                                                                ",
"                                                                ",
"                    # # # $ % & & $                             ",
"              # # # ' $ $ ( ) * + , - $ %                       ",
"            # # # . ' 0 1 2 3 3 3 3 4 5 6 7 %                   ",
"          # # # ' 8 9                   : ; < =                 ",
"        & # # # $ >                         3 ? @ .             ",
"      A $ # # # .               . ' . ' % =   3 B C .           ",
"    D E ' # # # #           F G # $ # # # .     3 H $ '         ",
"    I & # # # #               3 J K . # # # %     L M $         ",
"    N $ # # # #                 L O $ # ' ' #       P N $       ",
"  Q R . # # # # #               S $ # ' T U $       3 V % #     ",
"  F W ' # # # # #               X . # % Y Z [ $       ] ^ '     ",
"  _ @ ' # # # # #             ` $ # # &   3 3 a       b c .     ",
"  d e ' # # # # # #         f % # # # $               g h $ #   ",
"  i j $ # # # # # # '     k l ' # # #                 m n . #   ",
"  : o % # # # # # # ' X   p $ # # # #                 q r ' #   ",
"    s $ # # # # # # ' X t ' # # # #                   u $ # #   ",
"    v w $ # # # # # # # . # # # # #                 ` x # # #   ",
"    3 y z ' # # # # # # # # # # #                 ' . ' # # #   ",
"      3 { & # # # # # # # # # # #           # # # # # # # # #   ",
"        | } % # # # # # # # # # #         ~ % # # # # # # #     ",
"        3 _  !% # # # # # # # #           a % # # # # # # #     ",
"          L !!#!$ # # # # # # #           $!. # # # # # #       ",
"            L 2 %!% . # # # #           &!'!' # # # ' ' (!      ",
"                )!*!+!% . # #           ,!. ' # # $ (!#!        ",
"                  3 -!.!0!$             1!& . $ & 2!D           ",
"                      3 3!4!            u 5!6!7!8!9!            ",
"                                        B :!m                   ",
"                                                                ",
"                                                                ",
"                                                                "};